<svg width="130" height="57" viewBox="0 0 130 57" fill="none" xmlns="http://www.w3.org/2000/svg">
<path opacity="0.5" d="M69.0364 41.7183C78.3678 38.9976 83.7268 29.2274 81.0061 19.896C78.2854 10.5646 68.5153 5.20556 59.1839 7.92624C49.8525 10.6469 44.4935 20.4171 47.2142 29.7485C49.9348 39.0799 59.705 44.4389 69.0364 41.7183Z" fill="#A8A8A8"/>
<path opacity="0.5" d="M64 29C66.2091 29 68 27.2092 68 25C68 22.7909 66.2091 21 64 21C61.7908 21 60 22.7909 60 25C60 27.2092 61.7908 29 64 29Z" fill="#A8A8A8"/>
<path opacity="0.9" d="M63.9701 35.5625C70.0452 35.5625 74.9701 30.6377 74.9701 24.5625C74.9701 18.4874 70.0452 13.5625 63.9701 13.5625C57.8949 13.5625 52.9701 18.4874 52.9701 24.5625C52.9701 30.6377 57.8949 35.5625 63.9701 35.5625Z" stroke="#A8A8A8" stroke-width="0.5"/>
<path d="M99.0453 9.56251L98.9647 9.18165H98.9452C98.8117 9.34929 98.6783 9.46322 98.5448 9.52345C98.413 9.58204 98.2478 9.61134 98.0492 9.61134C97.7839 9.61134 97.5756 9.54298 97.4242 9.40626C97.2745 9.26954 97.1996 9.07504 97.1996 8.82276C97.1996 8.2824 97.6317 7.99919 98.496 7.97315L98.9501 7.9585V7.79249C98.9501 7.58253 98.9045 7.4279 98.8134 7.32862C98.7238 7.22771 98.5798 7.17725 98.3812 7.17725C98.1582 7.17725 97.906 7.24561 97.6244 7.38233L97.4999 7.07227C97.6317 7.00066 97.7758 6.94451 97.932 6.90382C98.0899 6.86313 98.2478 6.84278 98.4056 6.84278C98.7247 6.84278 98.9607 6.91358 99.1136 7.05518C99.2683 7.19678 99.3456 7.42384 99.3456 7.73634V9.56251H99.0453ZM98.1298 9.27686C98.382 9.27686 98.5798 9.20769 98.723 9.06934C98.8679 8.931 98.9403 8.73731 98.9403 8.48829V8.24659L98.535 8.26368C98.2128 8.27507 97.98 8.32553 97.8368 8.41505C97.6952 8.50294 97.6244 8.64047 97.6244 8.82764C97.6244 8.97413 97.6683 9.08562 97.7562 9.16212C97.8457 9.23861 97.9703 9.27686 98.1298 9.27686ZM101.404 6.8379C101.523 6.8379 101.629 6.84766 101.724 6.8672L101.667 7.24317C101.557 7.21876 101.459 7.20655 101.374 7.20655C101.158 7.20655 100.972 7.29444 100.818 7.47022C100.665 7.646 100.588 7.86492 100.588 8.12696V9.56251H100.183V6.88673H100.517L100.564 7.38233H100.583C100.683 7.20818 100.802 7.0739 100.942 6.9795C101.082 6.8851 101.236 6.8379 101.404 6.8379ZM103.088 9.27686C103.16 9.27686 103.229 9.27198 103.296 9.26221C103.363 9.25082 103.415 9.23943 103.454 9.22803V9.53809C103.411 9.55925 103.345 9.57634 103.259 9.58936C103.175 9.60401 103.098 9.61134 103.03 9.61134C102.512 9.61134 102.253 9.33871 102.253 8.79346V7.20167H101.87V7.00636L102.253 6.8379L102.424 6.26661H102.659V6.88673H103.435V7.20167H102.659V8.77637C102.659 8.93751 102.697 9.06121 102.773 9.14747C102.85 9.23373 102.955 9.27686 103.088 9.27686ZM104.397 9.56251H103.992V6.88673H104.397V9.56251ZM103.957 6.16163C103.957 6.06886 103.98 6.00131 104.026 5.95899C104.071 5.91505 104.128 5.89307 104.197 5.89307C104.262 5.89307 104.318 5.91505 104.365 5.95899C104.412 6.00294 104.436 6.07048 104.436 6.16163C104.436 6.25277 104.412 6.32113 104.365 6.36671C104.318 6.41065 104.262 6.43262 104.197 6.43262C104.128 6.43262 104.071 6.41065 104.026 6.36671C103.98 6.32113 103.957 6.25277 103.957 6.16163ZM106.326 9.61134C105.938 9.61134 105.638 9.49252 105.425 9.25489C105.213 9.01563 105.107 8.6779 105.107 8.24171C105.107 7.79412 105.215 7.44825 105.43 7.20411C105.646 6.95997 105.954 6.8379 106.352 6.8379C106.481 6.8379 106.61 6.85173 106.738 6.8794C106.867 6.90707 106.968 6.93962 107.041 6.97706L106.916 7.3213C106.827 7.28549 106.729 7.25619 106.623 7.23341C106.518 7.20899 106.424 7.19678 106.343 7.19678C105.799 7.19678 105.527 7.54346 105.527 8.23682C105.527 8.5656 105.593 8.81788 105.725 8.99366C105.858 9.16944 106.055 9.25733 106.316 9.25733C106.539 9.25733 106.767 9.20932 107.002 9.11329V9.47218C106.823 9.56495 106.597 9.61134 106.326 9.61134ZM108.044 9.56251H107.639V5.76368H108.044V9.56251ZM110.034 9.61134C109.639 9.61134 109.326 9.49089 109.097 9.25001C108.869 9.00912 108.755 8.67465 108.755 8.24659C108.755 7.81527 108.861 7.47266 109.072 7.21876C109.285 6.96485 109.571 6.8379 109.929 6.8379C110.264 6.8379 110.53 6.94858 110.725 7.16993C110.92 7.38966 111.018 7.68018 111.018 8.04151V8.29786H109.175C109.183 8.61199 109.262 8.85043 109.411 9.01319C109.563 9.17595 109.775 9.25733 110.049 9.25733C110.337 9.25733 110.622 9.19711 110.903 9.07667V9.438C110.76 9.49984 110.624 9.54379 110.495 9.56983C110.369 9.5975 110.215 9.61134 110.034 9.61134ZM109.924 7.17725C109.709 7.17725 109.538 7.24724 109.409 7.38721C109.282 7.52719 109.207 7.72087 109.184 7.96827H110.583C110.583 7.71274 110.526 7.51742 110.412 7.38233C110.299 7.24561 110.136 7.17725 109.924 7.17725Z" fill="black"/>
<path d="M99.0453 26.5625L98.9647 26.1816H98.9452C98.8117 26.3493 98.6783 26.4632 98.5448 26.5234C98.413 26.582 98.2478 26.6113 98.0492 26.6113C97.7839 26.6113 97.5756 26.543 97.4242 26.4063C97.2745 26.2695 97.1996 26.075 97.1996 25.8228C97.1996 25.2824 97.6317 24.9992 98.496 24.9732L98.9501 24.9585V24.7925C98.9501 24.5825 98.9045 24.4279 98.8134 24.3286C98.7238 24.2277 98.5798 24.1773 98.3812 24.1773C98.1582 24.1773 97.906 24.2456 97.6244 24.3823L97.4999 24.0723C97.6317 24.0007 97.7758 23.9445 97.932 23.9038C98.0899 23.8631 98.2478 23.8428 98.4056 23.8428C98.7247 23.8428 98.9607 23.9136 99.1136 24.0552C99.2683 24.1968 99.3456 24.4238 99.3456 24.7363V26.5625H99.0453ZM98.1298 26.2769C98.382 26.2769 98.5798 26.2077 98.723 26.0693C98.8679 25.931 98.9403 25.7373 98.9403 25.4883V25.2466L98.535 25.2637C98.2128 25.2751 97.98 25.3255 97.8368 25.415C97.6952 25.5029 97.6244 25.6405 97.6244 25.8276C97.6244 25.9741 97.6683 26.0856 97.7562 26.1621C97.8457 26.2386 97.9703 26.2769 98.1298 26.2769ZM101.404 23.8379C101.523 23.8379 101.629 23.8477 101.724 23.8672L101.667 24.2432C101.557 24.2188 101.459 24.2066 101.374 24.2066C101.158 24.2066 100.972 24.2944 100.818 24.4702C100.665 24.646 100.588 24.8649 100.588 25.127V26.5625H100.183V23.8867H100.517L100.564 24.3823H100.583C100.683 24.2082 100.802 24.0739 100.942 23.9795C101.082 23.8851 101.236 23.8379 101.404 23.8379ZM103.088 26.2769C103.16 26.2769 103.229 26.272 103.296 26.2622C103.363 26.2508 103.415 26.2394 103.454 26.228V26.5381C103.411 26.5593 103.345 26.5763 103.259 26.5894C103.175 26.604 103.098 26.6113 103.03 26.6113C102.512 26.6113 102.253 26.3387 102.253 25.7935V24.2017H101.87V24.0064L102.253 23.8379L102.424 23.2666H102.659V23.8867H103.435V24.2017H102.659V25.7764C102.659 25.9375 102.697 26.0612 102.773 26.1475C102.85 26.2337 102.955 26.2769 103.088 26.2769ZM104.397 26.5625H103.992V23.8867H104.397V26.5625ZM103.957 23.1616C103.957 23.0689 103.98 23.0013 104.026 22.959C104.071 22.915 104.128 22.8931 104.197 22.8931C104.262 22.8931 104.318 22.915 104.365 22.959C104.412 23.0029 104.436 23.0705 104.436 23.1616C104.436 23.2528 104.412 23.3211 104.365 23.3667C104.318 23.4107 104.262 23.4326 104.197 23.4326C104.128 23.4326 104.071 23.4107 104.026 23.3667C103.98 23.3211 103.957 23.2528 103.957 23.1616ZM106.326 26.6113C105.938 26.6113 105.638 26.4925 105.425 26.2549C105.213 26.0156 105.107 25.6779 105.107 25.2417C105.107 24.7941 105.215 24.4482 105.43 24.2041C105.646 23.96 105.954 23.8379 106.352 23.8379C106.481 23.8379 106.61 23.8517 106.738 23.8794C106.867 23.9071 106.968 23.9396 107.041 23.9771L106.916 24.3213C106.827 24.2855 106.729 24.2562 106.623 24.2334C106.518 24.209 106.424 24.1968 106.343 24.1968C105.799 24.1968 105.527 24.5435 105.527 25.2368C105.527 25.5656 105.593 25.8179 105.725 25.9937C105.858 26.1694 106.055 26.2573 106.316 26.2573C106.539 26.2573 106.767 26.2093 107.002 26.1133V26.4722C106.823 26.5649 106.597 26.6113 106.326 26.6113ZM108.044 26.5625H107.639V22.7637H108.044V26.5625ZM110.034 26.6113C109.639 26.6113 109.326 26.4909 109.097 26.25C108.869 26.0091 108.755 25.6746 108.755 25.2466C108.755 24.8153 108.861 24.4727 109.072 24.2188C109.285 23.9649 109.571 23.8379 109.929 23.8379C110.264 23.8379 110.53 23.9486 110.725 24.1699C110.92 24.3897 111.018 24.6802 111.018 25.0415V25.2979H109.175C109.183 25.612 109.262 25.8504 109.411 26.0132C109.563 26.176 109.775 26.2573 110.049 26.2573C110.337 26.2573 110.622 26.1971 110.903 26.0767V26.438C110.76 26.4998 110.624 26.5438 110.495 26.5698C110.369 26.5975 110.215 26.6113 110.034 26.6113ZM109.924 24.1773C109.709 24.1773 109.538 24.2472 109.409 24.3872C109.282 24.5272 109.207 24.7209 109.184 24.9683H110.583C110.583 24.7127 110.526 24.5174 110.412 24.3823C110.299 24.2456 110.136 24.1773 109.924 24.1773ZM115.195 26.5625L114.704 24.9927C114.674 24.8967 114.616 24.6786 114.531 24.3384H114.512C114.446 24.6232 114.39 24.8429 114.341 24.9976L113.835 26.5625H113.367L112.637 23.8867H113.061C113.234 24.5589 113.365 25.0708 113.454 25.4224C113.546 25.7739 113.598 26.0107 113.611 26.1328H113.63C113.648 26.04 113.677 25.9204 113.716 25.7739C113.756 25.6258 113.791 25.5086 113.821 25.4224L114.311 23.8867H114.751L115.229 25.4224C115.321 25.7023 115.382 25.9375 115.415 26.1279H115.434C115.441 26.0693 115.458 25.979 115.486 25.8569C115.515 25.7349 115.685 25.0781 115.996 23.8867H116.416L115.676 26.5625H115.195ZM117.307 26.5625H116.902V23.8867H117.307V26.5625ZM116.868 23.1616C116.868 23.0689 116.89 23.0013 116.936 22.959C116.981 22.915 117.038 22.8931 117.107 22.8931C117.172 22.8931 117.228 22.915 117.275 22.959C117.322 23.0029 117.346 23.0705 117.346 23.1616C117.346 23.2528 117.322 23.3211 117.275 23.3667C117.228 23.4107 117.172 23.4326 117.107 23.4326C117.038 23.4326 116.981 23.4107 116.936 23.3667C116.89 23.3211 116.868 23.2528 116.868 23.1616ZM119.031 26.2769C119.102 26.2769 119.171 26.272 119.238 26.2622C119.305 26.2508 119.358 26.2394 119.397 26.228V26.5381C119.353 26.5593 119.288 26.5763 119.202 26.5894C119.117 26.604 119.04 26.6113 118.972 26.6113C118.454 26.6113 118.196 26.3387 118.196 25.7935V24.2017H117.812V24.0064L118.196 23.8379L118.367 23.2666H118.601V23.8867H119.377V24.2017H118.601V25.7764C118.601 25.9375 118.639 26.0612 118.716 26.1475C118.792 26.2337 118.897 26.2769 119.031 26.2769ZM121.765 26.5625V24.8316C121.765 24.6135 121.715 24.4507 121.616 24.3433C121.517 24.2358 121.361 24.1821 121.15 24.1821C120.868 24.1821 120.662 24.2586 120.532 24.4116C120.404 24.5646 120.339 24.8153 120.339 25.1636V26.5625H119.934V22.7637H120.339V23.9136C120.339 24.0519 120.333 24.1667 120.32 24.2578H120.344C120.424 24.1292 120.537 24.0283 120.683 23.9551C120.832 23.8802 121 23.8428 121.189 23.8428C121.516 23.8428 121.761 23.9209 121.924 24.0772C122.088 24.2318 122.17 24.4784 122.17 24.8169V26.5625H121.765Z" fill="black"/>
<path d="M99.1259 14.8325C99.1259 15.0816 99.0331 15.2736 98.8475 15.4087C98.662 15.5438 98.4016 15.6113 98.0663 15.6113C97.7115 15.6113 97.4348 15.5552 97.2362 15.4429V15.0669C97.3648 15.132 97.5023 15.1833 97.6488 15.2207C97.7969 15.2581 97.9393 15.2769 98.076 15.2769C98.2876 15.2769 98.4504 15.2435 98.5643 15.1768C98.6783 15.1084 98.7352 15.0051 98.7352 14.8667C98.7352 14.7625 98.6897 14.6738 98.5985 14.6006C98.509 14.5257 98.3332 14.4378 98.0712 14.3369C97.8221 14.2441 97.6447 14.1636 97.5389 14.0952C97.4348 14.0252 97.3566 13.9463 97.3046 13.8584C97.2541 13.7705 97.2289 13.6655 97.2289 13.5435C97.2289 13.3254 97.3176 13.1537 97.495 13.0283C97.6724 12.9014 97.9157 12.8379 98.225 12.8379C98.5131 12.8379 98.7946 12.8965 99.0697 13.0137L98.9257 13.3433C98.6571 13.2326 98.4138 13.1773 98.1957 13.1773C98.0036 13.1773 97.8588 13.2074 97.7611 13.2676C97.6635 13.3278 97.6146 13.4108 97.6146 13.5166C97.6146 13.5882 97.6325 13.6493 97.6683 13.6997C97.7058 13.7502 97.7652 13.7982 97.8466 13.8438C97.9279 13.8893 98.0842 13.9552 98.3153 14.0415C98.6327 14.1571 98.8467 14.2734 98.9574 14.3906C99.0697 14.5078 99.1259 14.6551 99.1259 14.8325ZM100.193 15.5625H99.7875V12.8867H100.193V15.5625ZM99.7533 12.1616C99.7533 12.0689 99.7761 12.0013 99.8217 11.959C99.8672 11.915 99.9242 11.8931 99.9926 11.8931C100.058 11.8931 100.114 11.915 100.161 11.959C100.208 12.0029 100.232 12.0705 100.232 12.1616C100.232 12.2528 100.208 12.3211 100.161 12.3667C100.114 12.4107 100.058 12.4326 99.9926 12.4326C99.9242 12.4326 99.8672 12.4107 99.8217 12.3667C99.7761 12.3211 99.7533 12.2528 99.7533 12.1616ZM102.764 15.5625H100.823V15.2866L102.283 13.2017H100.913V12.8867H102.727V13.2017L101.286 15.2476H102.764V15.5625ZM104.521 15.6113C104.126 15.6113 103.813 15.4909 103.584 15.25C103.356 15.0091 103.242 14.6746 103.242 14.2466C103.242 13.8153 103.348 13.4727 103.559 13.2188C103.773 12.9649 104.058 12.8379 104.416 12.8379C104.752 12.8379 105.017 12.9486 105.212 13.1699C105.408 13.3897 105.505 13.6802 105.505 14.0415V14.2979H103.662C103.67 14.612 103.749 14.8504 103.899 15.0132C104.05 15.176 104.263 15.2573 104.536 15.2573C104.824 15.2573 105.109 15.1971 105.391 15.0767V15.438C105.247 15.4998 105.111 15.5438 104.983 15.5698C104.856 15.5975 104.702 15.6113 104.521 15.6113ZM104.411 13.1773C104.197 13.1773 104.025 13.2472 103.896 13.3872C103.769 13.5272 103.695 13.7209 103.672 13.9683H105.071C105.071 13.7127 105.014 13.5174 104.9 13.3823C104.786 13.2456 104.623 13.1773 104.411 13.1773Z" fill="black"/>
<path d="M98.6205 29.8379C98.7393 29.8379 98.8459 29.8477 98.9403 29.8672L98.8842 30.2432C98.7735 30.2188 98.6758 30.2066 98.5912 30.2066C98.3747 30.2066 98.1892 30.2944 98.0345 30.4702C97.8816 30.646 97.8051 30.8649 97.8051 31.127V32.5625H97.3998V29.8867H97.7343L97.7806 30.3823H97.8002C97.8995 30.2082 98.0191 30.0739 98.1591 29.9795C98.299 29.8851 98.4528 29.8379 98.6205 29.8379ZM100.571 32.6113C100.176 32.6113 99.8632 32.4909 99.6337 32.25C99.4058 32.0091 99.2919 31.6746 99.2919 31.2466C99.2919 30.8153 99.3977 30.4727 99.6093 30.2188C99.8225 29.9649 100.108 29.8379 100.466 29.8379C100.801 29.8379 101.067 29.9486 101.262 30.1699C101.457 30.3897 101.555 30.6802 101.555 31.0415V31.2979H99.7118C99.7199 31.612 99.7989 31.8504 99.9486 32.0132C100.1 32.176 100.312 32.2573 100.586 32.2573C100.874 32.2573 101.159 32.1971 101.44 32.0767V32.438C101.297 32.4998 101.161 32.5438 101.033 32.5698C100.906 32.5975 100.752 32.6113 100.571 32.6113ZM100.461 30.1773C100.246 30.1773 100.075 30.2472 99.9462 30.3872C99.8192 30.5272 99.7443 30.7209 99.7216 30.9683H101.12C101.12 30.7127 101.064 30.5174 100.95 30.3823C100.836 30.2456 100.673 30.1773 100.461 30.1773ZM103.974 31.8325C103.974 32.0816 103.882 32.2736 103.696 32.4087C103.511 32.5438 103.25 32.6113 102.915 32.6113C102.56 32.6113 102.283 32.5552 102.085 32.4429V32.0669C102.213 32.132 102.351 32.1833 102.497 32.2207C102.646 32.2581 102.788 32.2769 102.925 32.2769C103.136 32.2769 103.299 32.2435 103.413 32.1768C103.527 32.1084 103.584 32.0051 103.584 31.8667C103.584 31.7625 103.538 31.6738 103.447 31.6006C103.358 31.5257 103.182 31.4378 102.92 31.3369C102.671 31.2441 102.493 31.1636 102.388 31.0952C102.283 31.0252 102.205 30.9463 102.153 30.8584C102.103 30.7705 102.078 30.6655 102.078 30.5435C102.078 30.3254 102.166 30.1537 102.344 30.0283C102.521 29.9014 102.764 29.8379 103.074 29.8379C103.362 29.8379 103.643 29.8965 103.918 30.0137L103.774 30.3433C103.506 30.2326 103.262 30.1773 103.044 30.1773C102.852 30.1773 102.707 30.2074 102.61 30.2676C102.512 30.3278 102.463 30.4108 102.463 30.5166C102.463 30.5882 102.481 30.6493 102.517 30.6997C102.554 30.7502 102.614 30.7982 102.695 30.8438C102.777 30.8893 102.933 30.9552 103.164 31.0415C103.481 31.1571 103.695 31.2734 103.806 31.3906C103.918 31.5078 103.974 31.6551 103.974 31.8325ZM105.5 32.2769C105.572 32.2769 105.641 32.272 105.708 32.2622C105.775 32.2508 105.828 32.2394 105.867 32.228V32.5381C105.823 32.5593 105.758 32.5763 105.671 32.5894C105.587 32.604 105.51 32.6113 105.442 32.6113C104.924 32.6113 104.665 32.3387 104.665 31.7935V30.2017H104.282V30.0064L104.665 29.8379L104.836 29.2666H105.071V29.8867H105.847V30.2017H105.071V31.7764C105.071 31.9375 105.109 32.0612 105.185 32.1475C105.262 32.2337 105.367 32.2769 105.5 32.2769ZM107.624 29.8379C107.743 29.8379 107.85 29.8477 107.944 29.8672L107.888 30.2432C107.777 30.2188 107.68 30.2066 107.595 30.2066C107.379 30.2066 107.193 30.2944 107.038 30.4702C106.885 30.646 106.809 30.8649 106.809 31.127V32.5625H106.404V29.8867H106.738L106.785 30.3823H106.804C106.903 30.2082 107.023 30.0739 107.163 29.9795C107.303 29.8851 107.457 29.8379 107.624 29.8379ZM108.85 32.5625H108.445V29.8867H108.85V32.5625ZM108.411 29.1616C108.411 29.0689 108.433 29.0013 108.479 28.959C108.524 28.915 108.581 28.8931 108.65 28.8931C108.715 28.8931 108.771 28.915 108.818 28.959C108.865 29.0029 108.889 29.0705 108.889 29.1616C108.889 29.2528 108.865 29.3211 108.818 29.3667C108.771 29.4107 108.715 29.4326 108.65 29.4326C108.581 29.4326 108.524 29.4107 108.479 29.3667C108.433 29.3211 108.411 29.2528 108.411 29.1616ZM110.779 32.6113C110.391 32.6113 110.091 32.4925 109.878 32.2549C109.666 32.0156 109.56 31.6779 109.56 31.2417C109.56 30.7941 109.668 30.4482 109.883 30.2041C110.099 29.96 110.407 29.8379 110.806 29.8379C110.934 29.8379 111.063 29.8517 111.191 29.8794C111.32 29.9071 111.421 29.9396 111.494 29.9771L111.37 30.3213C111.28 30.2855 111.182 30.2562 111.077 30.2334C110.971 30.209 110.877 30.1968 110.796 30.1968C110.252 30.1968 109.98 30.5435 109.98 31.2368C109.98 31.5656 110.046 31.8179 110.178 31.9937C110.312 32.1694 110.509 32.2573 110.769 32.2573C110.992 32.2573 111.221 32.2093 111.455 32.1133V32.4722C111.276 32.5649 111.05 32.6113 110.779 32.6113ZM112.956 32.2769C113.028 32.2769 113.097 32.272 113.164 32.2622C113.231 32.2508 113.284 32.2394 113.323 32.228V32.5381C113.279 32.5593 113.214 32.5763 113.127 32.5894C113.043 32.604 112.966 32.6113 112.898 32.6113C112.38 32.6113 112.121 32.3387 112.121 31.7935V30.2017H111.738V30.0064L112.121 29.8379L112.292 29.2666H112.527V29.8867H113.303V30.2017H112.527V31.7764C112.527 31.9375 112.565 32.0612 112.641 32.1475C112.718 32.2337 112.823 32.2769 112.956 32.2769ZM114.265 32.5625H113.86V29.8867H114.265V32.5625ZM113.826 29.1616C113.826 29.0689 113.848 29.0013 113.894 28.959C113.939 28.915 113.996 28.8931 114.065 28.8931C114.13 28.8931 114.186 28.915 114.233 28.959C114.28 29.0029 114.304 29.0705 114.304 29.1616C114.304 29.2528 114.28 29.3211 114.233 29.3667C114.186 29.4107 114.13 29.4326 114.065 29.4326C113.996 29.4326 113.939 29.4107 113.894 29.3667C113.848 29.3211 113.826 29.2528 113.826 29.1616ZM117.434 31.2222C117.434 31.6584 117.324 31.9994 117.104 32.2451C116.885 32.4893 116.581 32.6113 116.194 32.6113C115.954 32.6113 115.742 32.5552 115.557 32.4429C115.371 32.3306 115.228 32.1694 115.127 31.9595C115.026 31.7495 114.975 31.5038 114.975 31.2222C114.975 30.786 115.085 30.4466 115.303 30.2041C115.521 29.96 115.823 29.8379 116.211 29.8379C116.585 29.8379 116.882 29.9624 117.102 30.2114C117.323 30.4605 117.434 30.7974 117.434 31.2222ZM115.395 31.2222C115.395 31.564 115.464 31.8244 115.6 32.0034C115.737 32.1825 115.938 32.272 116.203 32.272C116.469 32.272 116.67 32.1833 116.807 32.0059C116.945 31.8268 117.014 31.5656 117.014 31.2222C117.014 30.882 116.945 30.624 116.807 30.4482C116.67 30.2708 116.467 30.1821 116.199 30.1821C115.933 30.1821 115.733 30.2692 115.598 30.4434C115.463 30.6175 115.395 30.8771 115.395 31.2222ZM119.978 32.5625V30.8316C119.978 30.6135 119.928 30.4507 119.829 30.3433C119.73 30.2358 119.574 30.1821 119.363 30.1821C119.083 30.1821 118.878 30.2578 118.747 30.4092C118.617 30.5606 118.552 30.8104 118.552 31.1587V32.5625H118.147V29.8867H118.476L118.542 30.2529H118.562C118.645 30.1211 118.761 30.0194 118.911 29.9478C119.061 29.8745 119.228 29.8379 119.411 29.8379C119.734 29.8379 119.976 29.916 120.139 30.0723C120.302 30.2269 120.383 30.4751 120.383 30.8169V32.5625H119.978ZM122.944 31.8325C122.944 32.0816 122.851 32.2736 122.666 32.4087C122.48 32.5438 122.22 32.6113 121.885 32.6113C121.53 32.6113 121.253 32.5552 121.055 32.4429V32.0669C121.183 32.132 121.321 32.1833 121.467 32.2207C121.615 32.2581 121.758 32.2769 121.894 32.2769C122.106 32.2769 122.269 32.2435 122.383 32.1768C122.497 32.1084 122.554 32.0051 122.554 31.8667C122.554 31.7625 122.508 31.6738 122.417 31.6006C122.327 31.5257 122.152 31.4378 121.89 31.3369C121.641 31.2441 121.463 31.1636 121.357 31.0952C121.253 31.0252 121.175 30.9463 121.123 30.8584C121.072 30.7705 121.047 30.6655 121.047 30.5435C121.047 30.3254 121.136 30.1537 121.313 30.0283C121.491 29.9014 121.734 29.8379 122.043 29.8379C122.331 29.8379 122.613 29.8965 122.888 30.0137L122.744 30.3433C122.475 30.2326 122.232 30.1773 122.014 30.1773C121.822 30.1773 121.677 30.2074 121.579 30.2676C121.482 30.3278 121.433 30.4108 121.433 30.5166C121.433 30.5882 121.451 30.6493 121.487 30.6997C121.524 30.7502 121.584 30.7982 121.665 30.8438C121.746 30.8893 121.903 30.9552 122.134 31.0415C122.451 31.1571 122.665 31.2734 122.776 31.3906C122.888 31.5078 122.944 31.6551 122.944 31.8325Z" fill="black"/>
<path d="M70.9701 8.56251L95.9701 8.56251" stroke="black" stroke-width="0.1" stroke-miterlimit="10"/>
<path d="M91.9701 25.5625L95.9701 25.5625" stroke="black" stroke-width="0.1" stroke-miterlimit="10"/>
<path d="M5.15576 36.6281C5.15576 36.8772 5.06299 37.0692 4.87744 37.2043C4.69189 37.3394 4.43148 37.4069 4.09619 37.4069C3.74137 37.4069 3.46468 37.3508 3.26611 37.2385V36.8625C3.39469 36.9276 3.53223 36.9789 3.67871 37.0163C3.82682 37.0537 3.96924 37.0725 4.10596 37.0725C4.31755 37.0725 4.48031 37.0391 4.59424 36.9724C4.70817 36.904 4.76514 36.8007 4.76514 36.6623C4.76514 36.5581 4.71956 36.4694 4.62842 36.3962C4.5389 36.3213 4.36312 36.2334 4.10107 36.1325C3.85205 36.0397 3.67464 35.9592 3.56885 35.8908C3.46468 35.8208 3.38656 35.7419 3.33447 35.654C3.28402 35.5661 3.25879 35.4611 3.25879 35.3391C3.25879 35.121 3.34749 34.9493 3.5249 34.8239C3.70231 34.697 3.94564 34.6335 4.25488 34.6335C4.54297 34.6335 4.82454 34.6921 5.09961 34.8093L4.95557 35.1389C4.68701 35.0282 4.44368 34.9729 4.22559 34.9729C4.03353 34.9729 3.88867 35.003 3.79102 35.0632C3.69336 35.1234 3.64453 35.2064 3.64453 35.3122C3.64453 35.3838 3.66243 35.4449 3.69824 35.4953C3.73568 35.5458 3.79508 35.5938 3.87646 35.6394C3.95785 35.6849 4.1141 35.7508 4.34521 35.8371C4.6626 35.9527 4.87663 36.069 4.9873 36.1862C5.09961 36.3034 5.15576 36.4507 5.15576 36.6281ZM6.22266 37.3581H5.81738V34.6823H6.22266V37.3581ZM5.7832 33.9572C5.7832 33.8645 5.80599 33.7969 5.85156 33.7546C5.89714 33.7106 5.9541 33.6887 6.02246 33.6887C6.08757 33.6887 6.14372 33.7106 6.19092 33.7546C6.23812 33.7985 6.26172 33.8661 6.26172 33.9572C6.26172 34.0484 6.23812 34.1167 6.19092 34.1623C6.14372 34.2063 6.08757 34.2282 6.02246 34.2282C5.9541 34.2282 5.89714 34.2063 5.85156 34.1623C5.80599 34.1167 5.7832 34.0484 5.7832 33.9572ZM8.79346 37.3581H6.85254V37.0822L8.3125 34.9973H6.94287V34.6823H8.75684V34.9973L7.31641 37.0432H8.79346V37.3581ZM10.5513 37.4069C10.1558 37.4069 9.84326 37.2865 9.61377 37.0456C9.3859 36.8047 9.27197 36.4703 9.27197 36.0422C9.27197 35.6109 9.37777 35.2683 9.58936 35.0144C9.80257 34.7605 10.0882 34.6335 10.4463 34.6335C10.7816 34.6335 11.0469 34.7442 11.2422 34.9655C11.4375 35.1853 11.5352 35.4758 11.5352 35.8371V36.0935H9.69189C9.70003 36.4076 9.77897 36.646 9.92871 36.8088C10.0801 36.9716 10.2925 37.0529 10.5659 37.0529C10.854 37.0529 11.1388 36.9927 11.4204 36.8723V37.2336C11.2772 37.2954 11.1413 37.3394 11.0127 37.3654C10.8857 37.3931 10.7319 37.4069 10.5513 37.4069ZM10.4414 34.9729C10.2266 34.9729 10.0549 35.0428 9.92627 35.1828C9.79932 35.3228 9.72445 35.5165 9.70166 35.7639H11.1006C11.1006 35.5083 11.0436 35.313 10.9297 35.1779C10.8158 35.0412 10.653 34.9729 10.4414 34.9729ZM15.8369 36.0178C15.8369 36.454 15.7271 36.795 15.5073 37.0407C15.2876 37.2849 14.984 37.4069 14.5967 37.4069C14.3574 37.4069 14.145 37.3508 13.9595 37.2385C13.7739 37.1262 13.6307 36.965 13.5298 36.7551C13.4289 36.5451 13.3784 36.2994 13.3784 36.0178C13.3784 35.5816 13.4875 35.2422 13.7056 34.9997C13.9237 34.7556 14.2264 34.6335 14.6138 34.6335C14.9881 34.6335 15.2852 34.758 15.5049 35.007C15.7262 35.2561 15.8369 35.593 15.8369 36.0178ZM13.7983 36.0178C13.7983 36.3596 13.8667 36.62 14.0034 36.799C14.1401 36.9781 14.3411 37.0676 14.6064 37.0676C14.8717 37.0676 15.0728 36.9789 15.2095 36.8015C15.3478 36.6224 15.417 36.3612 15.417 36.0178C15.417 35.6776 15.3478 35.4196 15.2095 35.2439C15.0728 35.0664 14.8701 34.9777 14.6016 34.9777C14.3363 34.9777 14.1361 35.0648 14.001 35.239C13.8659 35.4131 13.7983 35.6727 13.7983 36.0178ZM17.7559 34.9973H17.0747V37.3581H16.6694V34.9973H16.1909V34.8142L16.6694 34.6677V34.5188C16.6694 33.8612 16.9567 33.5324 17.5312 33.5324C17.6729 33.5324 17.8389 33.5609 18.0293 33.6179L17.9243 33.9426C17.7681 33.8921 17.6346 33.8669 17.5239 33.8669C17.3709 33.8669 17.2578 33.9182 17.1846 34.0207C17.1113 34.1216 17.0747 34.2844 17.0747 34.509V34.6823H17.7559V34.9973ZM20.4072 37.0725C20.4788 37.0725 20.548 37.0676 20.6147 37.0578C20.6815 37.0464 20.7344 37.035 20.7734 37.0236V37.3337C20.7295 37.3549 20.6644 37.3719 20.5781 37.385C20.4935 37.3996 20.417 37.4069 20.3486 37.4069C19.8311 37.4069 19.5723 37.1343 19.5723 36.5891V34.9973H19.189V34.802L19.5723 34.6335L19.7432 34.0622H19.9775V34.6823H20.7539V34.9973H19.9775V36.572C19.9775 36.7331 20.0158 36.8568 20.0923 36.9431C20.1688 37.0293 20.2738 37.0725 20.4072 37.0725ZM23.1416 37.3581V35.6272C23.1416 35.4091 23.092 35.2463 22.9927 35.1389C22.8934 35.0314 22.738 34.9777 22.5264 34.9777C22.2448 34.9777 22.0389 35.0542 21.9087 35.2072C21.7801 35.3602 21.7158 35.6109 21.7158 35.9592V37.3581H21.3105V33.5593H21.7158V34.7092C21.7158 34.8475 21.7093 34.9623 21.6963 35.0534H21.7207C21.8005 34.9248 21.9136 34.8239 22.0601 34.7507C22.2082 34.6758 22.3766 34.6384 22.5654 34.6384C22.8926 34.6384 23.1375 34.7165 23.3003 34.8728C23.4647 35.0274 23.5469 35.274 23.5469 35.6125V37.3581H23.1416ZM25.5122 37.4069C25.1167 37.4069 24.8042 37.2865 24.5747 37.0456C24.3468 36.8047 24.2329 36.4703 24.2329 36.0422C24.2329 35.6109 24.3387 35.2683 24.5503 35.0144C24.7635 34.7605 25.0492 34.6335 25.4072 34.6335C25.7425 34.6335 26.0078 34.7442 26.2031 34.9655C26.3984 35.1853 26.4961 35.4758 26.4961 35.8371V36.0935H24.6528C24.661 36.4076 24.7399 36.646 24.8896 36.8088C25.041 36.9716 25.2534 37.0529 25.5269 37.0529C25.8149 37.0529 26.0998 36.9927 26.3813 36.8723V37.2336C26.2381 37.2954 26.1022 37.3394 25.9736 37.3654C25.8467 37.3931 25.6929 37.4069 25.5122 37.4069ZM25.4023 34.9729C25.1875 34.9729 25.0158 35.0428 24.8872 35.1828C24.7603 35.3228 24.6854 35.5165 24.6626 35.7639H26.0615C26.0615 35.5083 26.0046 35.313 25.8906 35.1779C25.7767 35.0412 25.6139 34.9729 25.4023 34.9729Z" fill="black"/>
<path d="M5.25098 42.9992H5.229C5.04183 43.271 4.76188 43.4069 4.38916 43.4069C4.03923 43.4069 3.7666 43.2873 3.57129 43.048C3.3776 42.8088 3.28076 42.4686 3.28076 42.0275C3.28076 41.5865 3.37842 41.2438 3.57373 40.9997C3.76904 40.7556 4.04085 40.6335 4.38916 40.6335C4.75212 40.6335 5.03044 40.7653 5.22412 41.029H5.25586L5.23877 40.8361L5.229 40.6481V39.5593H5.63428V43.3581H5.30469L5.25098 42.9992ZM4.44043 43.0676C4.71712 43.0676 4.91732 42.9927 5.04102 42.843C5.16634 42.6916 5.229 42.4483 5.229 42.113V42.0275C5.229 41.6483 5.16553 41.3781 5.03857 41.217C4.91325 41.0542 4.71224 40.9728 4.43555 40.9728C4.19792 40.9728 4.01562 41.0656 3.88867 41.2512C3.76335 41.4351 3.70068 41.6955 3.70068 42.0324C3.70068 42.3742 3.76335 42.6322 3.88867 42.8063C4.014 42.9805 4.19792 43.0676 4.44043 43.0676ZM6.90137 43.3581H6.49609V40.6823H6.90137V43.3581ZM6.46191 39.9572C6.46191 39.8644 6.4847 39.7969 6.53027 39.7546C6.57585 39.7106 6.63281 39.6887 6.70117 39.6887C6.76628 39.6887 6.82243 39.7106 6.86963 39.7546C6.91683 39.7985 6.94043 39.8661 6.94043 39.9572C6.94043 40.0484 6.91683 40.1167 6.86963 40.1623C6.82243 40.2062 6.76628 40.2282 6.70117 40.2282C6.63281 40.2282 6.57585 40.2062 6.53027 40.1623C6.4847 40.1167 6.46191 40.0484 6.46191 39.9572ZM9.48682 42.6281C9.48682 42.8771 9.39404 43.0692 9.2085 43.2043C9.02295 43.3394 8.76253 43.4069 8.42725 43.4069C8.07243 43.4069 7.79574 43.3508 7.59717 43.2385V42.8625C7.72575 42.9276 7.86328 42.9789 8.00977 43.0163C8.15788 43.0537 8.30029 43.0725 8.43701 43.0725C8.6486 43.0725 8.81136 43.0391 8.92529 42.9724C9.03923 42.904 9.09619 42.8006 9.09619 42.6623C9.09619 42.5581 9.05062 42.4694 8.95947 42.3962C8.86995 42.3213 8.69417 42.2334 8.43213 42.1325C8.18311 42.0397 8.0057 41.9592 7.8999 41.8908C7.79574 41.8208 7.71761 41.7419 7.66553 41.654C7.61507 41.5661 7.58984 41.4611 7.58984 41.3391C7.58984 41.121 7.67855 40.9492 7.85596 40.8239C8.03337 40.697 8.27669 40.6335 8.58594 40.6335C8.87402 40.6335 9.1556 40.6921 9.43066 40.8093L9.28662 41.1389C9.01807 41.0282 8.77474 40.9728 8.55664 40.9728C8.36458 40.9728 8.21973 41.003 8.12207 41.0632C8.02441 41.1234 7.97559 41.2064 7.97559 41.3122C7.97559 41.3838 7.99349 41.4449 8.0293 41.4953C8.06673 41.5458 8.12614 41.5938 8.20752 41.6394C8.2889 41.6849 8.44515 41.7508 8.67627 41.8371C8.99365 41.9527 9.20768 42.069 9.31836 42.1862C9.43066 42.3034 9.48682 42.4507 9.48682 42.6281ZM11.2178 43.4069C10.8304 43.4069 10.5301 43.2881 10.3169 43.0505C10.1053 42.8112 9.99951 42.4735 9.99951 42.0373C9.99951 41.5897 10.1069 41.2438 10.3218 40.9997C10.5382 40.7556 10.8459 40.6335 11.2446 40.6335C11.3732 40.6335 11.5018 40.6473 11.6304 40.675C11.759 40.7027 11.8599 40.7352 11.9331 40.7727L11.8086 41.1169C11.7191 41.0811 11.6214 41.0518 11.5156 41.029C11.4098 41.0046 11.3162 40.9924 11.2349 40.9924C10.6912 40.9924 10.4194 41.3391 10.4194 42.0324C10.4194 42.3612 10.4854 42.6135 10.6172 42.7893C10.7507 42.965 10.9476 43.0529 11.208 43.0529C11.431 43.0529 11.6597 43.0049 11.894 42.9089V43.2678C11.715 43.3605 11.4896 43.4069 11.2178 43.4069ZM12.9121 40.6823V42.4182C12.9121 42.6363 12.9618 42.799 13.061 42.9064C13.1603 43.0139 13.3158 43.0676 13.5273 43.0676C13.8073 43.0676 14.0116 42.9911 14.1401 42.8381C14.2703 42.6851 14.3354 42.4352 14.3354 42.0886V40.6823H14.7407V43.3581H14.4062L14.3477 42.9992H14.3257C14.2427 43.1311 14.1271 43.232 13.979 43.3019C13.8325 43.3719 13.6649 43.4069 13.4761 43.4069C13.1506 43.4069 12.9064 43.3296 12.7437 43.175C12.5825 43.0204 12.502 42.773 12.502 42.4328V40.6823H12.9121ZM17.3286 42.6281C17.3286 42.8771 17.2358 43.0692 17.0503 43.2043C16.8647 43.3394 16.6043 43.4069 16.269 43.4069C15.9142 43.4069 15.6375 43.3508 15.439 43.2385V42.8625C15.5675 42.9276 15.7051 42.9789 15.8516 43.0163C15.9997 43.0537 16.1421 43.0725 16.2788 43.0725C16.4904 43.0725 16.6532 43.0391 16.7671 42.9724C16.881 42.904 16.938 42.8006 16.938 42.6623C16.938 42.5581 16.8924 42.4694 16.8013 42.3962C16.7118 42.3213 16.536 42.2334 16.2739 42.1325C16.0249 42.0397 15.8475 41.9592 15.7417 41.8908C15.6375 41.8208 15.5594 41.7419 15.5073 41.654C15.4569 41.5661 15.4316 41.4611 15.4316 41.3391C15.4316 41.121 15.5203 40.9492 15.6978 40.8239C15.8752 40.697 16.1185 40.6335 16.4277 40.6335C16.7158 40.6335 16.9974 40.6921 17.2725 40.8093L17.1284 41.1389C16.8599 41.0282 16.6165 40.9728 16.3984 40.9728C16.2064 40.9728 16.0615 41.003 15.9639 41.0632C15.8662 41.1234 15.8174 41.2064 15.8174 41.3122C15.8174 41.3838 15.8353 41.4449 15.8711 41.4953C15.9085 41.5458 15.9679 41.5938 16.0493 41.6394C16.1307 41.6849 16.2869 41.7508 16.5181 41.8371C16.8354 41.9527 17.0495 42.069 17.1602 42.1862C17.2725 42.3034 17.3286 42.4507 17.3286 42.6281ZM19.7163 42.6281C19.7163 42.8771 19.6235 43.0692 19.438 43.2043C19.2524 43.3394 18.992 43.4069 18.6567 43.4069C18.3019 43.4069 18.0252 43.3508 17.8267 43.2385V42.8625C17.9552 42.9276 18.0928 42.9789 18.2393 43.0163C18.3874 43.0537 18.5298 43.0725 18.6665 43.0725C18.8781 43.0725 19.0409 43.0391 19.1548 42.9724C19.2687 42.904 19.3257 42.8006 19.3257 42.6623C19.3257 42.5581 19.2801 42.4694 19.189 42.3962C19.0994 42.3213 18.9237 42.2334 18.6616 42.1325C18.4126 42.0397 18.2352 41.9592 18.1294 41.8908C18.0252 41.8208 17.9471 41.7419 17.895 41.654C17.8446 41.5661 17.8193 41.4611 17.8193 41.3391C17.8193 41.121 17.908 40.9492 18.0854 40.8239C18.2629 40.697 18.5062 40.6335 18.8154 40.6335C19.1035 40.6335 19.3851 40.6921 19.6602 40.8093L19.5161 41.1389C19.2476 41.0282 19.0042 40.9728 18.7861 40.9728C18.5941 40.9728 18.4492 41.003 18.3516 41.0632C18.2539 41.1234 18.2051 41.2064 18.2051 41.3122C18.2051 41.3838 18.223 41.4449 18.2588 41.4953C18.2962 41.5458 18.3556 41.5938 18.437 41.6394C18.5184 41.6849 18.6746 41.7508 18.9058 41.8371C19.2231 41.9527 19.4372 42.069 19.5479 42.1862C19.6602 42.3034 19.7163 42.4507 19.7163 42.6281ZM20.7832 43.3581H20.3779V40.6823H20.7832V43.3581ZM20.3438 39.9572C20.3438 39.8644 20.3665 39.7969 20.4121 39.7546C20.4577 39.7106 20.5146 39.6887 20.583 39.6887C20.6481 39.6887 20.7043 39.7106 20.7515 39.7546C20.7987 39.7985 20.8223 39.8661 20.8223 39.9572C20.8223 40.0484 20.7987 40.1167 20.7515 40.1623C20.7043 40.2062 20.6481 40.2282 20.583 40.2282C20.5146 40.2282 20.4577 40.2062 20.4121 40.1623C20.3665 40.1167 20.3438 40.0484 20.3438 39.9572ZM23.9521 42.0178C23.9521 42.454 23.8423 42.7949 23.6226 43.0407C23.4028 43.2849 23.0993 43.4069 22.7119 43.4069C22.4727 43.4069 22.2603 43.3508 22.0747 43.2385C21.8892 43.1262 21.7459 42.965 21.645 42.7551C21.5441 42.5451 21.4937 42.2993 21.4937 42.0178C21.4937 41.5816 21.6027 41.2422 21.8208 40.9997C22.0389 40.7556 22.3416 40.6335 22.729 40.6335C23.1034 40.6335 23.4004 40.758 23.6201 41.007C23.8415 41.2561 23.9521 41.593 23.9521 42.0178ZM21.9136 42.0178C21.9136 42.3596 21.9819 42.62 22.1187 42.799C22.2554 42.9781 22.4564 43.0676 22.7217 43.0676C22.987 43.0676 23.188 42.9789 23.3247 42.8015C23.4631 42.6224 23.5322 42.3612 23.5322 42.0178C23.5322 41.6776 23.4631 41.4196 23.3247 41.2438C23.188 41.0664 22.9854 40.9777 22.7168 40.9777C22.4515 40.9777 22.2513 41.0648 22.1162 41.239C21.9811 41.4131 21.9136 41.6727 21.9136 42.0178ZM26.4961 43.3581V41.6271C26.4961 41.409 26.4465 41.2463 26.3472 41.1389C26.2479 41.0314 26.0924 40.9777 25.8809 40.9777C25.6009 40.9777 25.3958 41.0534 25.2656 41.2048C25.1354 41.3561 25.0703 41.606 25.0703 41.9543V43.3581H24.665V40.6823H24.9946L25.0605 41.0485H25.0801C25.1631 40.9167 25.2795 40.815 25.4292 40.7434C25.5789 40.6701 25.7458 40.6335 25.9297 40.6335C26.252 40.6335 26.4945 40.7116 26.6572 40.8679C26.82 41.0225 26.9014 41.2707 26.9014 41.6125V43.3581H26.4961Z" fill="black"/>
<path d="M4.6748 49.4069C4.50065 49.4069 4.34115 49.3752 4.19629 49.3117C4.05306 49.2466 3.93262 49.1473 3.83496 49.0139H3.80566C3.8252 49.1701 3.83496 49.3182 3.83496 49.4582V50.5593H3.42969V46.6823H3.75928L3.81543 47.0485H3.83496C3.93913 46.902 4.06038 46.7963 4.19873 46.7311C4.33708 46.666 4.49577 46.6335 4.6748 46.6335C5.02962 46.6335 5.30306 46.7547 5.49512 46.9973C5.6888 47.2398 5.78564 47.5799 5.78564 48.0178C5.78564 48.4572 5.68717 48.799 5.49023 49.0432C5.29492 49.2857 5.02311 49.4069 4.6748 49.4069ZM4.61621 46.9777C4.34277 46.9777 4.14502 47.0534 4.02295 47.2048C3.90088 47.3561 3.83822 47.597 3.83496 47.9274V48.0178C3.83496 48.3937 3.89762 48.6631 4.02295 48.8259C4.14827 48.987 4.34928 49.0676 4.62598 49.0676C4.8571 49.0676 5.03776 48.974 5.16797 48.7868C5.2998 48.5996 5.36572 48.3417 5.36572 48.0129C5.36572 47.6792 5.2998 47.4237 5.16797 47.2463C5.03776 47.0672 4.85384 46.9777 4.61621 46.9777ZM8.1416 49.3581L8.06104 48.9772H8.0415C7.90804 49.1449 7.77458 49.2588 7.64111 49.319C7.50928 49.3776 7.34408 49.4069 7.14551 49.4069C6.88021 49.4069 6.67188 49.3386 6.52051 49.2019C6.37077 49.0651 6.2959 48.8706 6.2959 48.6184C6.2959 48.078 6.72803 47.7948 7.59229 47.7687L8.04639 47.7541V47.5881C8.04639 47.3781 8.00081 47.2235 7.90967 47.1242C7.82015 47.0233 7.67611 46.9728 7.47754 46.9728C7.25456 46.9728 7.00228 47.0412 6.7207 47.1779L6.59619 46.8679C6.72803 46.7963 6.87207 46.7401 7.02832 46.6994C7.1862 46.6587 7.34408 46.6384 7.50195 46.6384C7.82096 46.6384 8.05697 46.7092 8.20996 46.8508C8.36458 46.9924 8.44189 47.2194 8.44189 47.5319V49.3581H8.1416ZM7.22607 49.0725C7.47835 49.0725 7.67611 49.0033 7.81934 48.8649C7.96419 48.7266 8.03662 48.5329 8.03662 48.2839V48.0422L7.63135 48.0593C7.30908 48.0707 7.07633 48.1211 6.93311 48.2106C6.7915 48.2985 6.7207 48.4361 6.7207 48.6232C6.7207 48.7697 6.76465 48.8812 6.85254 48.9577C6.94206 49.0342 7.06657 49.0725 7.22607 49.0725ZM11.4692 46.6823V46.9387L10.9736 46.9973C11.0192 47.0542 11.0599 47.1291 11.0957 47.2219C11.1315 47.313 11.1494 47.4164 11.1494 47.5319C11.1494 47.794 11.0599 48.0031 10.8809 48.1594C10.7018 48.3156 10.4561 48.3937 10.1436 48.3937C10.0638 48.3937 9.98893 48.3872 9.91895 48.3742C9.74642 48.4654 9.66016 48.5801 9.66016 48.7185C9.66016 48.7917 9.69027 48.8462 9.75049 48.882C9.81071 48.9162 9.91406 48.9333 10.0605 48.9333H10.5342C10.8239 48.9333 11.0461 48.9943 11.2007 49.1164C11.3569 49.2385 11.4351 49.4159 11.4351 49.6486C11.4351 49.9449 11.3162 50.1703 11.0786 50.3249C10.841 50.4811 10.4943 50.5593 10.0386 50.5593C9.68864 50.5593 9.41846 50.4942 9.22803 50.364C9.03923 50.2338 8.94482 50.0498 8.94482 49.8122C8.94482 49.6494 8.99691 49.5087 9.10107 49.3898C9.20524 49.271 9.35173 49.1905 9.54053 49.1481C9.47217 49.1172 9.41439 49.0692 9.36719 49.0041C9.32161 48.939 9.29883 48.8633 9.29883 48.777C9.29883 48.6794 9.32487 48.5939 9.37695 48.5207C9.42904 48.4475 9.51123 48.3767 9.62354 48.3083C9.48519 48.2513 9.37207 48.1545 9.28418 48.0178C9.19792 47.8811 9.15479 47.7248 9.15479 47.549C9.15479 47.2561 9.24268 47.0306 9.41846 46.8727C9.59424 46.7132 9.84326 46.6335 10.1655 46.6335C10.3055 46.6335 10.4316 46.6498 10.5439 46.6823H11.4692ZM9.33545 49.8073C9.33545 49.9522 9.39648 50.062 9.51855 50.1369C9.64062 50.2118 9.81559 50.2492 10.0435 50.2492C10.3836 50.2492 10.6351 50.1979 10.7979 50.0954C10.9622 49.9945 11.0444 49.857 11.0444 49.6828C11.0444 49.538 10.9997 49.437 10.9102 49.3801C10.8206 49.3247 10.6522 49.2971 10.4048 49.2971H9.91895C9.73503 49.2971 9.5918 49.341 9.48926 49.4289C9.38672 49.5168 9.33545 49.6429 9.33545 49.8073ZM9.55518 47.5393C9.55518 47.7264 9.60807 47.868 9.71387 47.9641C9.81966 48.0601 9.96696 48.1081 10.1558 48.1081C10.5513 48.1081 10.749 47.916 10.749 47.5319C10.749 47.1299 10.5488 46.9289 10.1484 46.9289C9.95801 46.9289 9.81152 46.9802 9.70898 47.0827C9.60645 47.1852 9.55518 47.3374 9.55518 47.5393ZM13.1489 49.4069C12.7534 49.4069 12.4409 49.2865 12.2114 49.0456C11.9836 48.8047 11.8696 48.4702 11.8696 48.0422C11.8696 47.6109 11.9754 47.2683 12.187 47.0144C12.4002 46.7604 12.6859 46.6335 13.0439 46.6335C13.3792 46.6335 13.6445 46.7442 13.8398 46.9655C14.0352 47.1852 14.1328 47.4758 14.1328 47.8371V48.0935H12.2896C12.2977 48.4076 12.3766 48.646 12.5264 48.8088C12.6777 48.9715 12.8901 49.0529 13.1636 49.0529C13.4517 49.0529 13.7365 48.9927 14.0181 48.8723V49.2336C13.8748 49.2954 13.7389 49.3394 13.6104 49.3654C13.4834 49.3931 13.3296 49.4069 13.1489 49.4069ZM13.0391 46.9728C12.8242 46.9728 12.6525 47.0428 12.5239 47.1828C12.397 47.3228 12.3221 47.5165 12.2993 47.7639H13.6982C13.6982 47.5083 13.6413 47.313 13.5273 47.1779C13.4134 47.0412 13.2507 46.9728 13.0391 46.9728Z" fill="black"/>
<path d="M31.9701 35.5625L63.9701 35.5625" stroke="black" stroke-width="0.1" stroke-miterlimit="10"/>
<path d="M3.97192 22.5625H3.56665V18.7637H3.97192V22.5625ZM5.96167 22.6113C5.56616 22.6113 5.25366 22.4909 5.02417 22.25C4.79631 22.0091 4.68237 21.6746 4.68237 21.2466C4.68237 20.8153 4.78817 20.4727 4.99976 20.2188C5.21297 19.9649 5.49862 19.8379 5.85669 19.8379C6.19198 19.8379 6.45728 19.9486 6.65259 20.1699C6.8479 20.3897 6.94556 20.6802 6.94556 21.0415V21.2979H5.10229C5.11043 21.612 5.18937 21.8504 5.33911 22.0132C5.49048 22.176 5.70288 22.2573 5.97632 22.2573C6.2644 22.2573 6.54924 22.1971 6.83081 22.0767V22.438C6.68758 22.4998 6.55168 22.5438 6.4231 22.5698C6.29614 22.5975 6.14233 22.6113 5.96167 22.6113ZM5.85181 20.1773C5.63696 20.1773 5.46525 20.2472 5.33667 20.3872C5.20972 20.5272 5.13485 20.7209 5.11206 20.9683H6.51099C6.51099 20.7127 6.45402 20.5174 6.34009 20.3823C6.22616 20.2456 6.0634 20.1773 5.85181 20.1773ZM9.28442 22.5625L9.20386 22.1816H9.18433C9.05086 22.3493 8.9174 22.4632 8.78394 22.5234C8.6521 22.582 8.4869 22.6113 8.28833 22.6113C8.02303 22.6113 7.8147 22.543 7.66333 22.4063C7.51359 22.2695 7.43872 22.075 7.43872 21.8228C7.43872 21.2824 7.87085 20.9992 8.73511 20.9732L9.18921 20.9585V20.7925C9.18921 20.5825 9.14364 20.4279 9.05249 20.3286C8.96297 20.2277 8.81893 20.1773 8.62036 20.1773C8.39738 20.1773 8.1451 20.2456 7.86353 20.3823L7.73901 20.0723C7.87085 20.0007 8.01489 19.9445 8.17114 19.9038C8.32902 19.8631 8.4869 19.8428 8.64478 19.8428C8.96379 19.8428 9.19979 19.9136 9.35278 20.0552C9.50741 20.1968 9.58472 20.4238 9.58472 20.7363V22.5625H9.28442ZM8.3689 22.2769C8.62118 22.2769 8.81893 22.2077 8.96216 22.0693C9.10701 21.931 9.17944 21.7373 9.17944 21.4883V21.2466L8.77417 21.2637C8.4519 21.2751 8.21916 21.3255 8.07593 21.415C7.93433 21.5029 7.86353 21.6405 7.86353 21.8276C7.86353 21.9741 7.90747 22.0856 7.99536 22.1621C8.08488 22.2386 8.20939 22.2769 8.3689 22.2769ZM12.2434 22.2036H12.2214C12.0343 22.4754 11.7543 22.6113 11.3816 22.6113C11.0317 22.6113 10.759 22.4917 10.5637 22.2524C10.37 22.0132 10.2732 21.673 10.2732 21.2319C10.2732 20.7909 10.3708 20.4482 10.5662 20.2041C10.7615 19.96 11.0333 19.8379 11.3816 19.8379C11.7445 19.8379 12.0229 19.9697 12.2166 20.2334H12.2483L12.2312 20.0405L12.2214 19.8525V18.7637H12.6267V22.5625H12.2971L12.2434 22.2036ZM11.4329 22.272C11.7096 22.272 11.9097 22.1971 12.0334 22.0474C12.1588 21.896 12.2214 21.6527 12.2214 21.3174V21.2319C12.2214 20.8527 12.158 20.5825 12.031 20.4214C11.9057 20.2586 11.7047 20.1773 11.428 20.1773C11.1903 20.1773 11.0081 20.27 10.8811 20.4556C10.7558 20.6395 10.6931 20.8999 10.6931 21.2368C10.6931 21.5786 10.7558 21.8366 10.8811 22.0107C11.0064 22.1849 11.1903 22.272 11.4329 22.272ZM16.5134 21.8325C16.5134 22.0816 16.4207 22.2736 16.2351 22.4087C16.0496 22.5438 15.7891 22.6113 15.4539 22.6113C15.099 22.6113 14.8223 22.5552 14.6238 22.4429V22.0669C14.7524 22.132 14.8899 22.1833 15.0364 22.2207C15.1845 22.2581 15.3269 22.2769 15.4636 22.2769C15.6752 22.2769 15.838 22.2435 15.9519 22.1768C16.0658 22.1084 16.1228 22.0051 16.1228 21.8667C16.1228 21.7625 16.0772 21.6738 15.9861 21.6006C15.8966 21.5257 15.7208 21.4378 15.4587 21.3369C15.2097 21.2441 15.0323 21.1636 14.9265 21.0952C14.8223 21.0252 14.7442 20.9463 14.6921 20.8584C14.6417 20.7705 14.6165 20.6655 14.6165 20.5435C14.6165 20.3254 14.7052 20.1537 14.8826 20.0283C15.06 19.9014 15.3033 19.8379 15.6125 19.8379C15.9006 19.8379 16.1822 19.8965 16.4573 20.0137L16.3132 20.3433C16.0447 20.2326 15.8014 20.1773 15.5833 20.1773C15.3912 20.1773 15.2463 20.2074 15.1487 20.2676C15.051 20.3278 15.0022 20.4108 15.0022 20.5166C15.0022 20.5882 15.0201 20.6493 15.0559 20.6997C15.0933 20.7502 15.1528 20.7982 15.2341 20.8438C15.3155 20.8893 15.4718 20.9552 15.7029 21.0415C16.0203 21.1571 16.2343 21.2734 16.345 21.3906C16.4573 21.5078 16.5134 21.6551 16.5134 21.8325ZM18.3054 22.6113C17.9099 22.6113 17.5974 22.4909 17.3679 22.25C17.1401 22.0091 17.0261 21.6746 17.0261 21.2466C17.0261 20.8153 17.1319 20.4727 17.3435 20.2188C17.5567 19.9649 17.8424 19.8379 18.2004 19.8379C18.5357 19.8379 18.801 19.9486 18.9963 20.1699C19.1917 20.3897 19.2893 20.6802 19.2893 21.0415V21.2979H17.446C17.4542 21.612 17.5331 21.8504 17.6829 22.0132C17.8342 22.176 18.0466 22.2573 18.3201 22.2573C18.6082 22.2573 18.893 22.1971 19.1746 22.0767V22.438C19.0313 22.4998 18.8954 22.5438 18.7668 22.5698C18.6399 22.5975 18.4861 22.6113 18.3054 22.6113ZM18.1956 20.1773C17.9807 20.1773 17.809 20.2472 17.6804 20.3872C17.5535 20.5272 17.4786 20.7209 17.4558 20.9683H18.8547C18.8547 20.7127 18.7978 20.5174 18.6838 20.3823C18.5699 20.2456 18.4071 20.1773 18.1956 20.1773ZM21.052 22.6113C20.6646 22.6113 20.3643 22.4925 20.1511 22.2549C19.9395 22.0156 19.8337 21.6779 19.8337 21.2417C19.8337 20.7941 19.9412 20.4482 20.156 20.2041C20.3725 19.96 20.6801 19.8379 21.0789 19.8379C21.2074 19.8379 21.336 19.8517 21.4646 19.8794C21.5932 19.9071 21.6941 19.9396 21.7673 19.9771L21.6428 20.3213C21.5533 20.2855 21.4556 20.2562 21.3499 20.2334C21.2441 20.209 21.1505 20.1968 21.0691 20.1968C20.5255 20.1968 20.2537 20.5435 20.2537 21.2368C20.2537 21.5656 20.3196 21.8179 20.4514 21.9937C20.5849 22.1694 20.7818 22.2573 21.0422 22.2573C21.2652 22.2573 21.4939 22.2093 21.7283 22.1133V22.4722C21.5492 22.5649 21.3238 22.6113 21.052 22.6113ZM23.2297 22.2769C23.3014 22.2769 23.3705 22.272 23.4373 22.2622C23.504 22.2508 23.5569 22.2394 23.5959 22.228V22.5381C23.552 22.5593 23.4869 22.5763 23.4006 22.5894C23.316 22.604 23.2395 22.6113 23.1711 22.6113C22.6536 22.6113 22.3948 22.3387 22.3948 21.7935V20.2017H22.0115V20.0064L22.3948 19.8379L22.5657 19.2666H22.8V19.8867H23.5764V20.2017H22.8V21.7764C22.8 21.9375 22.8383 22.0612 22.9148 22.1475C22.9913 22.2337 23.0963 22.2769 23.2297 22.2769ZM24.5383 22.5625H24.1331V19.8867H24.5383V22.5625ZM24.0989 19.1616C24.0989 19.0689 24.1217 19.0013 24.1672 18.959C24.2128 18.915 24.2698 18.8931 24.3381 18.8931C24.4032 18.8931 24.4594 18.915 24.5066 18.959C24.5538 19.0029 24.5774 19.0705 24.5774 19.1616C24.5774 19.2528 24.5538 19.3211 24.5066 19.3667C24.4594 19.4107 24.4032 19.4326 24.3381 19.4326C24.2698 19.4326 24.2128 19.4107 24.1672 19.3667C24.1217 19.3211 24.0989 19.2528 24.0989 19.1616ZM27.7073 21.2222C27.7073 21.6584 27.5974 21.9994 27.3777 22.2451C27.158 22.4893 26.8544 22.6113 26.467 22.6113C26.2278 22.6113 26.0154 22.5552 25.8298 22.4429C25.6443 22.3306 25.5011 22.1694 25.4001 21.9595C25.2992 21.7495 25.2488 21.5038 25.2488 21.2222C25.2488 20.786 25.3578 20.4466 25.5759 20.2041C25.794 19.96 26.0968 19.8379 26.4841 19.8379C26.8585 19.8379 27.1555 19.9624 27.3752 20.2114C27.5966 20.4605 27.7073 20.7974 27.7073 21.2222ZM25.6687 21.2222C25.6687 21.564 25.7371 21.8244 25.8738 22.0034C26.0105 22.1825 26.2115 22.272 26.4768 22.272C26.7421 22.272 26.9431 22.1833 27.0798 22.0059C27.2182 21.8268 27.2874 21.5656 27.2874 21.2222C27.2874 20.882 27.2182 20.624 27.0798 20.4482C26.9431 20.2708 26.7405 20.1821 26.4719 20.1821C26.2066 20.1821 26.0064 20.2692 25.8713 20.4434C25.7362 20.6175 25.6687 20.8771 25.6687 21.2222ZM30.2512 22.5625V20.8316C30.2512 20.6135 30.2016 20.4507 30.1023 20.3433C30.003 20.2358 29.8476 20.1821 29.636 20.1821C29.356 20.1821 29.151 20.2578 29.0208 20.4092C28.8905 20.5606 28.8254 20.8104 28.8254 21.1587V22.5625H28.4202V19.8867H28.7498L28.8157 20.2529H28.8352C28.9182 20.1211 29.0346 20.0194 29.1843 19.9478C29.3341 19.8745 29.5009 19.8379 29.6848 19.8379C30.0071 19.8379 30.2496 19.916 30.4124 20.0723C30.5751 20.2269 30.6565 20.4751 30.6565 20.8169V22.5625H30.2512Z" fill="black"/>
<path d="M5.29272 27.4428C5.29272 27.6918 5.19995 27.8839 5.0144 28.0189C4.82886 28.154 4.56844 28.2216 4.23315 28.2216C3.87834 28.2216 3.60164 28.1654 3.40308 28.0531V27.6771C3.53166 27.7423 3.66919 27.7935 3.81567 27.831C3.96379 27.8684 4.1062 27.8871 4.24292 27.8871C4.45451 27.8871 4.61727 27.8537 4.7312 27.787C4.84513 27.7187 4.9021 27.6153 4.9021 27.477C4.9021 27.3728 4.85653 27.2841 4.76538 27.2108C4.67586 27.136 4.50008 27.0481 4.23804 26.9472C3.98901 26.8544 3.8116 26.7738 3.70581 26.7055C3.60164 26.6355 3.52352 26.5565 3.47144 26.4687C3.42098 26.3808 3.39575 26.2758 3.39575 26.1537C3.39575 25.9356 3.48446 25.7639 3.66187 25.6386C3.83927 25.5116 4.0826 25.4481 4.39185 25.4481C4.67993 25.4481 4.96151 25.5067 5.23657 25.6239L5.09253 25.9535C4.82397 25.8428 4.58065 25.7875 4.36255 25.7875C4.17049 25.7875 4.02563 25.8176 3.92798 25.8778C3.83032 25.9381 3.78149 26.0211 3.78149 26.1269C3.78149 26.1985 3.7994 26.2595 3.83521 26.31C3.87264 26.3604 3.93205 26.4084 4.01343 26.454C4.09481 26.4996 4.25106 26.5655 4.48218 26.6518C4.79956 26.7673 5.01359 26.8837 5.12427 27.0009C5.23657 27.1181 5.29272 27.2654 5.29272 27.4428ZM6.35962 28.1728H5.95435V25.497H6.35962V28.1728ZM5.92017 24.7719C5.92017 24.6791 5.94295 24.6116 5.98853 24.5692C6.0341 24.5253 6.09106 24.5033 6.15942 24.5033C6.22453 24.5033 6.28068 24.5253 6.32788 24.5692C6.37508 24.6132 6.39868 24.6807 6.39868 24.7719C6.39868 24.863 6.37508 24.9314 6.32788 24.977C6.28068 25.0209 6.22453 25.0429 6.15942 25.0429C6.09106 25.0429 6.0341 25.0209 5.98853 24.977C5.94295 24.9314 5.92017 24.863 5.92017 24.7719ZM8.93042 28.1728H6.9895V27.8969L8.44946 25.8119H7.07983V25.497H8.8938V25.8119L7.45337 27.8578H8.93042V28.1728ZM10.6882 28.2216C10.2927 28.2216 9.98022 28.1011 9.75073 27.8603C9.52287 27.6194 9.40894 27.2849 9.40894 26.8568C9.40894 26.4255 9.51473 26.0829 9.72632 25.829C9.93953 25.5751 10.2252 25.4481 10.5833 25.4481C10.9185 25.4481 11.1838 25.5588 11.3792 25.7802C11.5745 25.9999 11.6721 26.2904 11.6721 26.6518V26.9081H9.82886C9.837 27.2222 9.91593 27.4607 10.0657 27.6234C10.217 27.7862 10.4294 27.8676 10.7029 27.8676C10.991 27.8676 11.2758 27.8074 11.5574 27.6869V28.0482C11.4141 28.1101 11.2782 28.154 11.1497 28.1801C11.0227 28.2077 10.8689 28.2216 10.6882 28.2216ZM10.5784 25.7875C10.3635 25.7875 10.1918 25.8575 10.0632 25.9975C9.93628 26.1374 9.86141 26.3311 9.83862 26.5785H11.2375C11.2375 26.323 11.1806 26.1277 11.0667 25.9926C10.9527 25.8559 10.79 25.7875 10.5784 25.7875Z" fill="black"/>
<path d="M32 21H64" stroke="black" stroke-width="0.1" stroke-miterlimit="10"/>
<circle cx="87.1429" cy="24.4286" r="1.17857" stroke="#7F7F7F" stroke-width="0.5"/>
<rect x="85.25" y="24.6786" width="3.78571" height="3.07143" fill="white" stroke="#7F7F7F" stroke-width="0.5"/>
</svg>
