<svg width="130" height="57" viewBox="0 0 130 57" fill="none" xmlns="http://www.w3.org/2000/svg">
<path opacity="0.5" d="M69.0364 41.7183C78.3678 38.9976 83.7268 29.2274 81.0061 19.896C78.2854 10.5646 68.5153 5.20556 59.1839 7.92624C49.8525 10.6469 44.4935 20.4171 47.2142 29.7485C49.9348 39.0799 59.705 44.4389 69.0364 41.7183Z" fill="#A8A8A8"/>
<path opacity="0.5" d="M64 29C66.2091 29 68 27.2092 68 25C68 22.7909 66.2091 21 64 21C61.7908 21 60 22.7909 60 25C60 27.2092 61.7908 29 64 29Z" fill="#A8A8A8"/>
<path opacity="0.9" d="M63.9701 35.5625C70.0452 35.5625 74.9701 30.6377 74.9701 24.5625C74.9701 18.4874 70.0452 13.5625 63.9701 13.5625C57.8949 13.5625 52.9701 18.4874 52.9701 24.5625C52.9701 30.6377 57.8949 35.5625 63.9701 35.5625Z" stroke="#A8A8A8" stroke-width="0.5"/>
<path d="M99.2211 9.20362H99.1991C99.0119 9.47543 98.732 9.61134 98.3593 9.61134C98.0093 9.61134 97.7367 9.49171 97.5414 9.25245C97.3477 9.01319 97.2509 8.67302 97.2509 8.23194C97.2509 7.79086 97.3485 7.44825 97.5438 7.20411C97.7391 6.95997 98.0109 6.8379 98.3593 6.8379C98.7222 6.8379 99.0005 6.96973 99.1942 7.23341H99.226L99.2089 7.04053L99.1991 6.85255V5.76368H99.6044V9.56251H99.2748L99.2211 9.20362ZM98.4105 9.27198C98.6872 9.27198 98.8874 9.19711 99.0111 9.04737C99.1364 8.896 99.1991 8.65268 99.1991 8.31739V8.23194C99.1991 7.85271 99.1356 7.58253 99.0087 7.42139C98.8833 7.25863 98.6823 7.17725 98.4056 7.17725C98.168 7.17725 97.9857 7.27003 97.8588 7.45557C97.7334 7.63949 97.6708 7.89991 97.6708 8.23682C97.6708 8.57862 97.7334 8.8366 97.8588 9.01075C97.9841 9.1849 98.168 9.27198 98.4105 9.27198ZM100.871 9.56251H100.466V6.88673H100.871V9.56251ZM100.432 6.16163C100.432 6.06886 100.455 6.00131 100.5 5.95899C100.546 5.91505 100.603 5.89307 100.671 5.89307C100.736 5.89307 100.793 5.91505 100.84 5.95899C100.887 6.00294 100.911 6.07048 100.911 6.16163C100.911 6.25277 100.887 6.32113 100.84 6.36671C100.793 6.41065 100.736 6.43262 100.671 6.43262C100.603 6.43262 100.546 6.41065 100.5 6.36671C100.455 6.32113 100.432 6.25277 100.432 6.16163ZM105.141 9.56251V7.82178C105.141 7.60857 105.096 7.44906 105.005 7.34327C104.914 7.23585 104.772 7.18214 104.58 7.18214C104.328 7.18214 104.141 7.25456 104.021 7.39942C103.9 7.54428 103.84 7.76726 103.84 8.06837V9.56251H103.435V7.82178C103.435 7.60857 103.389 7.44906 103.298 7.34327C103.207 7.23585 103.065 7.18214 102.871 7.18214C102.617 7.18214 102.431 7.25863 102.312 7.41163C102.195 7.563 102.136 7.81202 102.136 8.1587V9.56251H101.731V6.88673H102.06L102.126 7.25294H102.146C102.222 7.12273 102.33 7.021 102.468 6.94776C102.608 6.87452 102.764 6.8379 102.937 6.8379C103.355 6.8379 103.629 6.98927 103.757 7.292H103.777C103.856 7.15203 103.972 7.04135 104.123 6.95997C104.275 6.87859 104.447 6.8379 104.641 6.8379C104.944 6.8379 105.17 6.91602 105.32 7.07227C105.471 7.2269 105.547 7.47511 105.547 7.8169V9.56251H105.141ZM107.515 9.61134C107.119 9.61134 106.807 9.49089 106.577 9.25001C106.349 9.00912 106.235 8.67465 106.235 8.24659C106.235 7.81527 106.341 7.47266 106.553 7.21876C106.766 6.96485 107.051 6.8379 107.41 6.8379C107.745 6.8379 108.01 6.94858 108.205 7.16993C108.401 7.38966 108.498 7.68018 108.498 8.04151V8.29786H106.655C106.663 8.61199 106.742 8.85043 106.892 9.01319C107.043 9.17595 107.256 9.25733 107.529 9.25733C107.817 9.25733 108.102 9.19711 108.384 9.07667V9.438C108.24 9.49984 108.105 9.54379 107.976 9.56983C107.849 9.5975 107.695 9.61134 107.515 9.61134ZM107.405 7.17725C107.19 7.17725 107.018 7.24724 106.89 7.38721C106.763 7.52719 106.688 7.72087 106.665 7.96827H108.064C108.064 7.71274 108.007 7.51742 107.893 7.38233C107.779 7.24561 107.616 7.17725 107.405 7.17725ZM111.023 9.56251V7.83155C111.023 7.61345 110.973 7.45069 110.874 7.34327C110.775 7.23585 110.619 7.18214 110.408 7.18214C110.128 7.18214 109.923 7.25782 109.792 7.40919C109.662 7.56055 109.597 7.81039 109.597 8.1587V9.56251H109.192V6.88673H109.521L109.587 7.25294H109.607C109.69 7.1211 109.806 7.01938 109.956 6.94776C110.106 6.87452 110.273 6.8379 110.456 6.8379C110.779 6.8379 111.021 6.91602 111.184 7.07227C111.347 7.2269 111.428 7.47511 111.428 7.8169V9.56251H111.023ZM113.989 8.83253C113.989 9.08155 113.896 9.27361 113.711 9.4087C113.525 9.54379 113.265 9.61134 112.93 9.61134C112.575 9.61134 112.298 9.55518 112.099 9.44288V9.0669C112.228 9.13201 112.366 9.18328 112.512 9.22071C112.66 9.25815 112.803 9.27686 112.939 9.27686C113.151 9.27686 113.314 9.2435 113.428 9.17677C113.542 9.10841 113.599 9.00505 113.599 8.86671C113.599 8.76254 113.553 8.67384 113.462 8.60059C113.372 8.52572 113.196 8.43783 112.934 8.33692C112.685 8.24415 112.508 8.16358 112.402 8.09522C112.298 8.02524 112.22 7.9463 112.168 7.85841C112.117 7.77052 112.092 7.66553 112.092 7.54346C112.092 7.32537 112.181 7.15365 112.358 7.02833C112.536 6.90137 112.779 6.8379 113.088 6.8379C113.376 6.8379 113.658 6.89649 113.933 7.01368L113.789 7.34327C113.52 7.23259 113.277 7.17725 113.059 7.17725C112.867 7.17725 112.722 7.20736 112.624 7.26759C112.527 7.32781 112.478 7.41081 112.478 7.51661C112.478 7.58822 112.496 7.64926 112.532 7.69971C112.569 7.75017 112.628 7.79818 112.71 7.84376C112.791 7.88933 112.947 7.95525 113.179 8.04151C113.496 8.15707 113.71 8.27345 113.821 8.39063C113.933 8.50782 113.989 8.65512 113.989 8.83253ZM115.056 9.56251H114.651V6.88673H115.056V9.56251ZM114.617 6.16163C114.617 6.06886 114.639 6.00131 114.685 5.95899C114.731 5.91505 114.787 5.89307 114.856 5.89307C114.921 5.89307 114.977 5.91505 115.024 5.95899C115.071 6.00294 115.095 6.07048 115.095 6.16163C115.095 6.25277 115.071 6.32113 115.024 6.36671C114.977 6.41065 114.921 6.43262 114.856 6.43262C114.787 6.43262 114.731 6.41065 114.685 6.36671C114.639 6.32113 114.617 6.25277 114.617 6.16163ZM118.225 8.22218C118.225 8.65837 118.115 8.99936 117.895 9.24512C117.676 9.48927 117.372 9.61134 116.985 9.61134C116.745 9.61134 116.533 9.55518 116.348 9.44288C116.162 9.33057 116.019 9.16944 115.918 8.95948C115.817 8.74952 115.766 8.50375 115.766 8.22218C115.766 7.78598 115.876 7.44662 116.094 7.20411C116.312 6.95997 116.614 6.8379 117.002 6.8379C117.376 6.8379 117.673 6.96241 117.893 7.21143C118.114 7.46046 118.225 7.79737 118.225 8.22218ZM116.186 8.22218C116.186 8.56397 116.255 8.82439 116.391 9.00343C116.528 9.18246 116.729 9.27198 116.995 9.27198C117.26 9.27198 117.461 9.18328 117.598 9.00587C117.736 8.82683 117.805 8.5656 117.805 8.22218C117.805 7.88201 117.736 7.62403 117.598 7.44825C117.461 7.27084 117.258 7.18214 116.99 7.18214C116.724 7.18214 116.524 7.26921 116.389 7.44337C116.254 7.61752 116.186 7.87712 116.186 8.22218ZM120.769 9.56251V7.83155C120.769 7.61345 120.719 7.45069 120.62 7.34327C120.521 7.23585 120.365 7.18214 120.154 7.18214C119.874 7.18214 119.669 7.25782 119.538 7.40919C119.408 7.56055 119.343 7.81039 119.343 8.1587V9.56251H118.938V6.88673H119.267L119.333 7.25294H119.353C119.436 7.1211 119.552 7.01938 119.702 6.94776C119.852 6.87452 120.019 6.8379 120.203 6.8379C120.525 6.8379 120.767 6.91602 120.93 7.07227C121.093 7.2269 121.174 7.47511 121.174 7.8169V9.56251H120.769ZM123.14 9.61134C122.744 9.61134 122.432 9.49089 122.202 9.25001C121.974 9.00912 121.86 8.67465 121.86 8.24659C121.86 7.81527 121.966 7.47266 122.178 7.21876C122.391 6.96485 122.676 6.8379 123.035 6.8379C123.37 6.8379 123.635 6.94858 123.83 7.16993C124.026 7.38966 124.123 7.68018 124.123 8.04151V8.29786H122.28C122.288 8.61199 122.367 8.85043 122.517 9.01319C122.668 9.17595 122.881 9.25733 123.154 9.25733C123.442 9.25733 123.727 9.19711 124.009 9.07667V9.438C123.865 9.49984 123.73 9.54379 123.601 9.56983C123.474 9.5975 123.32 9.61134 123.14 9.61134ZM123.03 7.17725C122.815 7.17725 122.643 7.24724 122.515 7.38721C122.388 7.52719 122.313 7.72087 122.29 7.96827H123.689C123.689 7.71274 123.632 7.51742 123.518 7.38233C123.404 7.24561 123.241 7.17725 123.03 7.17725Z" fill="black"/>
<path d="M97.9857 26.5625L96.9701 23.8867H97.4047L97.9808 25.4736C98.111 25.8447 98.1875 26.0856 98.2103 26.1963H98.2299C98.2478 26.11 98.3039 25.9318 98.3983 25.6616C98.4943 25.3898 98.7084 24.7982 99.0404 23.8867H99.475L98.4594 26.5625H97.9857ZM102.214 25.2222C102.214 25.6584 102.104 25.9994 101.885 26.2451C101.665 26.4893 101.361 26.6113 100.974 26.6113C100.735 26.6113 100.522 26.5552 100.337 26.4429C100.151 26.3306 100.008 26.1694 99.9071 25.9595C99.8062 25.7495 99.7557 25.5038 99.7557 25.2222C99.7557 24.786 99.8648 24.4466 100.083 24.2041C100.301 23.96 100.604 23.8379 100.991 23.8379C101.365 23.8379 101.662 23.9624 101.882 24.2114C102.104 24.4605 102.214 24.7974 102.214 25.2222ZM100.176 25.2222C100.176 25.564 100.244 25.8244 100.381 26.0034C100.517 26.1825 100.718 26.272 100.984 26.272C101.249 26.272 101.45 26.1833 101.587 26.0059C101.725 25.8268 101.794 25.5656 101.794 25.2222C101.794 24.882 101.725 24.624 101.587 24.4482C101.45 24.2708 101.247 24.1821 100.979 24.1821C100.714 24.1821 100.513 24.2692 100.378 24.4434C100.243 24.6175 100.176 24.8771 100.176 25.2222ZM103.996 26.6113C103.609 26.6113 103.309 26.4925 103.096 26.2549C102.884 26.0156 102.778 25.6779 102.778 25.2417C102.778 24.7941 102.886 24.4482 103.1 24.2041C103.317 23.96 103.625 23.8379 104.023 23.8379C104.152 23.8379 104.28 23.8517 104.409 23.8794C104.538 23.9071 104.639 23.9396 104.712 23.9771L104.587 24.3213C104.498 24.2855 104.4 24.2562 104.294 24.2334C104.189 24.209 104.095 24.1968 104.014 24.1968C103.47 24.1968 103.198 24.5435 103.198 25.2368C103.198 25.5656 103.264 25.8179 103.396 25.9937C103.529 26.1694 103.726 26.2573 103.987 26.2573C104.21 26.2573 104.438 26.2093 104.673 26.1133V26.4722C104.494 26.5649 104.268 26.6113 103.996 26.6113ZM106.44 26.6113C106.045 26.6113 105.732 26.4909 105.503 26.25C105.275 26.0091 105.161 25.6746 105.161 25.2466C105.161 24.8153 105.267 24.4727 105.478 24.2188C105.692 23.9649 105.977 23.8379 106.335 23.8379C106.671 23.8379 106.936 23.9486 107.131 24.1699C107.327 24.3897 107.424 24.6802 107.424 25.0415V25.2979H105.581C105.589 25.612 105.668 25.8504 105.818 26.0132C105.969 26.176 106.182 26.2573 106.455 26.2573C106.743 26.2573 107.028 26.1971 107.309 26.0767V26.438C107.166 26.4998 107.03 26.5438 106.902 26.5698C106.775 26.5975 106.621 26.6113 106.44 26.6113ZM106.33 24.1773C106.116 24.1773 105.944 24.2472 105.815 24.3872C105.688 24.5272 105.613 24.7209 105.591 24.9683H106.99C106.99 24.7127 106.933 24.5174 106.819 24.3823C106.705 24.2456 106.542 24.1773 106.33 24.1773ZM110.486 26.6113C110.098 26.6113 109.798 26.4925 109.585 26.2549C109.373 26.0156 109.267 25.6779 109.267 25.2417C109.267 24.7941 109.375 24.4482 109.59 24.2041C109.806 23.96 110.114 23.8379 110.513 23.8379C110.641 23.8379 110.77 23.8517 110.898 23.8794C111.027 23.9071 111.128 23.9396 111.201 23.9771L111.077 24.3213C110.987 24.2855 110.889 24.2562 110.784 24.2334C110.678 24.209 110.584 24.1968 110.503 24.1968C109.959 24.1968 109.687 24.5435 109.687 25.2368C109.687 25.5656 109.753 25.8179 109.885 25.9937C110.019 26.1694 110.216 26.2573 110.476 26.2573C110.699 26.2573 110.928 26.2093 111.162 26.1133V26.4722C110.983 26.5649 110.758 26.6113 110.486 26.6113ZM114.109 25.2222C114.109 25.6584 113.999 25.9994 113.779 26.2451C113.559 26.4893 113.256 26.6113 112.869 26.6113C112.629 26.6113 112.417 26.5552 112.231 26.4429C112.046 26.3306 111.903 26.1694 111.802 25.9595C111.701 25.7495 111.65 25.5038 111.65 25.2222C111.65 24.786 111.759 24.4466 111.977 24.2041C112.196 23.96 112.498 23.8379 112.886 23.8379C113.26 23.8379 113.557 23.9624 113.777 24.2114C113.998 24.4605 114.109 24.7974 114.109 25.2222ZM112.07 25.2222C112.07 25.564 112.139 25.8244 112.275 26.0034C112.412 26.1825 112.613 26.272 112.878 26.272C113.144 26.272 113.345 26.1833 113.481 26.0059C113.62 25.8268 113.689 25.5656 113.689 25.2222C113.689 24.882 113.62 24.624 113.481 24.4482C113.345 24.2708 113.142 24.1821 112.873 24.1821C112.608 24.1821 112.408 24.2692 112.273 24.4434C112.138 24.6175 112.07 24.8771 112.07 25.2222ZM116.653 26.5625V24.8316C116.653 24.6135 116.603 24.4507 116.504 24.3433C116.405 24.2358 116.249 24.1821 116.037 24.1821C115.758 24.1821 115.552 24.2578 115.422 24.4092C115.292 24.5606 115.227 24.8104 115.227 25.1587V26.5625H114.822V23.8867H115.151L115.217 24.2529H115.237C115.32 24.1211 115.436 24.0194 115.586 23.9478C115.736 23.8745 115.902 23.8379 116.086 23.8379C116.409 23.8379 116.651 23.916 116.814 24.0723C116.977 24.2269 117.058 24.4751 117.058 24.8169V26.5625H116.653Z" fill="black"/>
<path d="M97.9857 15.5625L96.9701 12.8867H97.4047L97.9808 14.4736C98.111 14.8447 98.1875 15.0856 98.2103 15.1963H98.2299C98.2478 15.11 98.3039 14.9318 98.3983 14.6616C98.4943 14.3898 98.7084 13.7982 99.0404 12.8867H99.475L98.4594 15.5625H97.9857ZM102.214 14.2222C102.214 14.6584 102.104 14.9994 101.885 15.2451C101.665 15.4893 101.361 15.6113 100.974 15.6113C100.735 15.6113 100.522 15.5552 100.337 15.4429C100.151 15.3306 100.008 15.1694 99.9071 14.9595C99.8062 14.7495 99.7557 14.5038 99.7557 14.2222C99.7557 13.786 99.8648 13.4466 100.083 13.2041C100.301 12.96 100.604 12.8379 100.991 12.8379C101.365 12.8379 101.662 12.9624 101.882 13.2114C102.104 13.4605 102.214 13.7974 102.214 14.2222ZM100.176 14.2222C100.176 14.564 100.244 14.8244 100.381 15.0034C100.517 15.1825 100.718 15.272 100.984 15.272C101.249 15.272 101.45 15.1833 101.587 15.0059C101.725 14.8268 101.794 14.5656 101.794 14.2222C101.794 13.882 101.725 13.624 101.587 13.4482C101.45 13.2708 101.247 13.1821 100.979 13.1821C100.714 13.1821 100.513 13.2692 100.378 13.4434C100.243 13.6175 100.176 13.8771 100.176 14.2222ZM103.996 15.6113C103.609 15.6113 103.309 15.4925 103.096 15.2549C102.884 15.0156 102.778 14.6779 102.778 14.2417C102.778 13.7941 102.886 13.4482 103.1 13.2041C103.317 12.96 103.625 12.8379 104.023 12.8379C104.152 12.8379 104.28 12.8517 104.409 12.8794C104.538 12.9071 104.639 12.9396 104.712 12.9771L104.587 13.3213C104.498 13.2855 104.4 13.2562 104.294 13.2334C104.189 13.209 104.095 13.1968 104.014 13.1968C103.47 13.1968 103.198 13.5435 103.198 14.2368C103.198 14.5656 103.264 14.8179 103.396 14.9937C103.529 15.1694 103.726 15.2573 103.987 15.2573C104.21 15.2573 104.438 15.2093 104.673 15.1133V15.4722C104.494 15.5649 104.268 15.6113 103.996 15.6113ZM106.44 15.6113C106.045 15.6113 105.732 15.4909 105.503 15.25C105.275 15.0091 105.161 14.6746 105.161 14.2466C105.161 13.8153 105.267 13.4727 105.478 13.2188C105.692 12.9649 105.977 12.8379 106.335 12.8379C106.671 12.8379 106.936 12.9486 107.131 13.1699C107.327 13.3897 107.424 13.6802 107.424 14.0415V14.2979H105.581C105.589 14.612 105.668 14.8504 105.818 15.0132C105.969 15.176 106.182 15.2573 106.455 15.2573C106.743 15.2573 107.028 15.1971 107.309 15.0767V15.438C107.166 15.4998 107.03 15.5438 106.902 15.5698C106.775 15.5975 106.621 15.6113 106.44 15.6113ZM106.33 13.1773C106.116 13.1773 105.944 13.2472 105.815 13.3872C105.688 13.5272 105.613 13.7209 105.591 13.9683H106.99C106.99 13.7127 106.933 13.5174 106.819 13.3823C106.705 13.2456 106.542 13.1773 106.33 13.1773Z" fill="black"/>
<path d="M98.6205 29.8379C98.7393 29.8379 98.8459 29.8477 98.9403 29.8672L98.8842 30.2432C98.7735 30.2188 98.6758 30.2066 98.5912 30.2066C98.3747 30.2066 98.1892 30.2944 98.0345 30.4702C97.8816 30.646 97.8051 30.8649 97.8051 31.127V32.5625H97.3998V29.8867H97.7343L97.7806 30.3823H97.8002C97.8995 30.2082 98.0191 30.0739 98.1591 29.9795C98.299 29.8851 98.4528 29.8379 98.6205 29.8379ZM100.571 32.6113C100.176 32.6113 99.8632 32.4909 99.6337 32.25C99.4058 32.0091 99.2919 31.6746 99.2919 31.2466C99.2919 30.8153 99.3977 30.4727 99.6093 30.2188C99.8225 29.9649 100.108 29.8379 100.466 29.8379C100.801 29.8379 101.067 29.9486 101.262 30.1699C101.457 30.3897 101.555 30.6802 101.555 31.0415V31.2979H99.7118C99.7199 31.612 99.7989 31.8504 99.9486 32.0132C100.1 32.176 100.312 32.2573 100.586 32.2573C100.874 32.2573 101.159 32.1971 101.44 32.0767V32.438C101.297 32.4998 101.161 32.5438 101.033 32.5698C100.906 32.5975 100.752 32.6113 100.571 32.6113ZM100.461 30.1773C100.246 30.1773 100.075 30.2472 99.9462 30.3872C99.8192 30.5272 99.7443 30.7209 99.7216 30.9683H101.12C101.12 30.7127 101.064 30.5174 100.95 30.3823C100.836 30.2456 100.673 30.1773 100.461 30.1773ZM103.974 31.8325C103.974 32.0816 103.882 32.2736 103.696 32.4087C103.511 32.5438 103.25 32.6113 102.915 32.6113C102.56 32.6113 102.283 32.5552 102.085 32.4429V32.0669C102.213 32.132 102.351 32.1833 102.497 32.2207C102.646 32.2581 102.788 32.2769 102.925 32.2769C103.136 32.2769 103.299 32.2435 103.413 32.1768C103.527 32.1084 103.584 32.0051 103.584 31.8667C103.584 31.7625 103.538 31.6738 103.447 31.6006C103.358 31.5257 103.182 31.4378 102.92 31.3369C102.671 31.2441 102.493 31.1636 102.388 31.0952C102.283 31.0252 102.205 30.9463 102.153 30.8584C102.103 30.7705 102.078 30.6655 102.078 30.5435C102.078 30.3254 102.166 30.1537 102.344 30.0283C102.521 29.9014 102.764 29.8379 103.074 29.8379C103.362 29.8379 103.643 29.8965 103.918 30.0137L103.774 30.3433C103.506 30.2326 103.262 30.1773 103.044 30.1773C102.852 30.1773 102.707 30.2074 102.61 30.2676C102.512 30.3278 102.463 30.4108 102.463 30.5166C102.463 30.5882 102.481 30.6493 102.517 30.6997C102.554 30.7502 102.614 30.7982 102.695 30.8438C102.777 30.8893 102.933 30.9552 103.164 31.0415C103.481 31.1571 103.695 31.2734 103.806 31.3906C103.918 31.5078 103.974 31.6551 103.974 31.8325ZM105.5 32.2769C105.572 32.2769 105.641 32.272 105.708 32.2622C105.775 32.2508 105.828 32.2394 105.867 32.228V32.5381C105.823 32.5593 105.758 32.5763 105.671 32.5894C105.587 32.604 105.51 32.6113 105.442 32.6113C104.924 32.6113 104.665 32.3387 104.665 31.7935V30.2017H104.282V30.0064L104.665 29.8379L104.836 29.2666H105.071V29.8867H105.847V30.2017H105.071V31.7764C105.071 31.9375 105.109 32.0612 105.185 32.1475C105.262 32.2337 105.367 32.2769 105.5 32.2769ZM107.624 29.8379C107.743 29.8379 107.85 29.8477 107.944 29.8672L107.888 30.2432C107.777 30.2188 107.68 30.2066 107.595 30.2066C107.379 30.2066 107.193 30.2944 107.038 30.4702C106.885 30.646 106.809 30.8649 106.809 31.127V32.5625H106.404V29.8867H106.738L106.785 30.3823H106.804C106.903 30.2082 107.023 30.0739 107.163 29.9795C107.303 29.8851 107.457 29.8379 107.624 29.8379ZM108.85 32.5625H108.445V29.8867H108.85V32.5625ZM108.411 29.1616C108.411 29.0689 108.433 29.0013 108.479 28.959C108.524 28.915 108.581 28.8931 108.65 28.8931C108.715 28.8931 108.771 28.915 108.818 28.959C108.865 29.0029 108.889 29.0705 108.889 29.1616C108.889 29.2528 108.865 29.3211 108.818 29.3667C108.771 29.4107 108.715 29.4326 108.65 29.4326C108.581 29.4326 108.524 29.4107 108.479 29.3667C108.433 29.3211 108.411 29.2528 108.411 29.1616ZM111.421 32.5625H109.48V32.2866L110.94 30.2017H109.57V29.8867H111.384V30.2017L109.944 32.2476H111.421V32.5625ZM112.453 32.5625H112.048V29.8867H112.453V32.5625ZM112.014 29.1616C112.014 29.0689 112.037 29.0013 112.082 28.959C112.128 28.915 112.185 28.8931 112.253 28.8931C112.318 28.8931 112.375 28.915 112.422 28.959C112.469 29.0029 112.493 29.0705 112.493 29.1616C112.493 29.2528 112.469 29.3211 112.422 29.3667C112.375 29.4107 112.318 29.4326 112.253 29.4326C112.185 29.4326 112.128 29.4107 112.082 29.3667C112.037 29.3211 112.014 29.2528 112.014 29.1616ZM115.622 31.2222C115.622 31.6584 115.513 31.9994 115.293 32.2451C115.073 32.4893 114.77 32.6113 114.382 32.6113C114.143 32.6113 113.931 32.5552 113.745 32.4429C113.559 32.3306 113.416 32.1694 113.315 31.9595C113.214 31.7495 113.164 31.5038 113.164 31.2222C113.164 30.786 113.273 30.4466 113.491 30.2041C113.709 29.96 114.012 29.8379 114.399 29.8379C114.774 29.8379 115.071 29.9624 115.29 30.2114C115.512 30.4605 115.622 30.7974 115.622 31.2222ZM113.584 31.2222C113.584 31.564 113.652 31.8244 113.789 32.0034C113.926 32.1825 114.127 32.272 114.392 32.272C114.657 32.272 114.858 32.1833 114.995 32.0059C115.133 31.8268 115.203 31.5656 115.203 31.2222C115.203 30.882 115.133 30.624 114.995 30.4482C114.858 30.2708 114.656 30.1821 114.387 30.1821C114.122 30.1821 113.922 30.2692 113.786 30.4434C113.651 30.6175 113.584 30.8771 113.584 31.2222ZM118.166 32.5625V30.8316C118.166 30.6135 118.117 30.4507 118.017 30.3433C117.918 30.2358 117.763 30.1821 117.551 30.1821C117.271 30.1821 117.066 30.2578 116.936 30.4092C116.806 30.5606 116.741 30.8104 116.741 31.1587V32.5625H116.335V29.8867H116.665L116.731 30.2529H116.75C116.833 30.1211 116.95 30.0194 117.099 29.9478C117.249 29.8745 117.416 29.8379 117.6 29.8379C117.922 29.8379 118.165 29.916 118.328 30.0723C118.49 30.2269 118.572 30.4751 118.572 30.8169V32.5625H118.166ZM119.812 32.5625H119.407V29.8867H119.812V32.5625ZM119.372 29.1616C119.372 29.0689 119.395 29.0013 119.441 28.959C119.486 28.915 119.543 28.8931 119.612 28.8931C119.677 28.8931 119.733 28.915 119.78 28.959C119.827 29.0029 119.851 29.0705 119.851 29.1616C119.851 29.2528 119.827 29.3211 119.78 29.3667C119.733 29.4107 119.677 29.4326 119.612 29.4326C119.543 29.4326 119.486 29.4107 119.441 29.3667C119.395 29.3211 119.372 29.2528 119.372 29.1616Z" fill="black"/>
<path d="M70.9701 8.56251L95.9701 8.56251" stroke="black" stroke-width="0.1" stroke-miterlimit="10"/>
<path d="M91.9701 25.5625L95.9701 25.5625" stroke="black" stroke-width="0.1" stroke-miterlimit="10"/>
<path d="M5.25098 36.9992H5.229C5.04183 37.271 4.76188 37.4069 4.38916 37.4069C4.03923 37.4069 3.7666 37.2873 3.57129 37.048C3.3776 36.8088 3.28076 36.4686 3.28076 36.0275C3.28076 35.5865 3.37842 35.2439 3.57373 34.9997C3.76904 34.7556 4.04085 34.6335 4.38916 34.6335C4.75212 34.6335 5.03044 34.7653 5.22412 35.029H5.25586L5.23877 34.8361L5.229 34.6481V33.5593H5.63428V37.3581H5.30469L5.25098 36.9992ZM4.44043 37.0676C4.71712 37.0676 4.91732 36.9927 5.04102 36.843C5.16634 36.6916 5.229 36.4483 5.229 36.113V36.0275C5.229 35.6483 5.16553 35.3781 5.03857 35.217C4.91325 35.0542 4.71224 34.9729 4.43555 34.9729C4.19792 34.9729 4.01562 35.0656 3.88867 35.2512C3.76335 35.4351 3.70068 35.6955 3.70068 36.0324C3.70068 36.3742 3.76335 36.6322 3.88867 36.8064C4.014 36.9805 4.19792 37.0676 4.44043 37.0676ZM6.90137 37.3581H6.49609V34.6823H6.90137V37.3581ZM6.46191 33.9572C6.46191 33.8645 6.4847 33.7969 6.53027 33.7546C6.57585 33.7106 6.63281 33.6887 6.70117 33.6887C6.76628 33.6887 6.82243 33.7106 6.86963 33.7546C6.91683 33.7985 6.94043 33.8661 6.94043 33.9572C6.94043 34.0484 6.91683 34.1167 6.86963 34.1623C6.82243 34.2063 6.76628 34.2282 6.70117 34.2282C6.63281 34.2282 6.57585 34.2063 6.53027 34.1623C6.4847 34.1167 6.46191 34.0484 6.46191 33.9572ZM11.1714 37.3581V35.6174C11.1714 35.4042 11.1258 35.2447 11.0347 35.1389C10.9435 35.0314 10.8019 34.9777 10.6099 34.9777C10.3576 34.9777 10.1712 35.0502 10.0508 35.195C9.93034 35.3399 9.87012 35.5629 9.87012 35.864V37.3581H9.46484V35.6174C9.46484 35.4042 9.41927 35.2447 9.32812 35.1389C9.23698 35.0314 9.09456 34.9777 8.90088 34.9777C8.64697 34.9777 8.46061 35.0542 8.3418 35.2072C8.22461 35.3586 8.16602 35.6076 8.16602 35.9543V37.3581H7.76074V34.6823H8.09033L8.15625 35.0485H8.17578C8.25228 34.9183 8.3597 34.8166 8.49805 34.7434C8.63802 34.6701 8.79427 34.6335 8.9668 34.6335C9.38509 34.6335 9.65853 34.7849 9.78711 35.0876H9.80664C9.88639 34.9476 10.002 34.8369 10.1533 34.7556C10.3047 34.6742 10.4772 34.6335 10.6709 34.6335C10.9736 34.6335 11.1999 34.7116 11.3496 34.8679C11.501 35.0225 11.5767 35.2707 11.5767 35.6125V37.3581H11.1714ZM13.5444 37.4069C13.1489 37.4069 12.8364 37.2865 12.6069 37.0456C12.3791 36.8047 12.2651 36.4703 12.2651 36.0422C12.2651 35.6109 12.3709 35.2683 12.5825 35.0144C12.7957 34.7605 13.0814 34.6335 13.4395 34.6335C13.7747 34.6335 14.04 34.7442 14.2354 34.9655C14.4307 35.1853 14.5283 35.4758 14.5283 35.8371V36.0935H12.6851C12.6932 36.4076 12.7721 36.646 12.9219 36.8088C13.0732 36.9716 13.2856 37.0529 13.5591 37.0529C13.8472 37.0529 14.132 36.9927 14.4136 36.8723V37.2336C14.2703 37.2954 14.1344 37.3394 14.0059 37.3654C13.8789 37.3931 13.7251 37.4069 13.5444 37.4069ZM13.4346 34.9729C13.2197 34.9729 13.048 35.0428 12.9194 35.1828C12.7925 35.3228 12.7176 35.5165 12.6948 35.7639H14.0938C14.0938 35.5083 14.0368 35.313 13.9229 35.1779C13.8089 35.0412 13.6462 34.9729 13.4346 34.9729ZM17.0527 37.3581V35.6272C17.0527 35.4091 17.0031 35.2463 16.9038 35.1389C16.8045 35.0314 16.6491 34.9777 16.4375 34.9777C16.1576 34.9777 15.9525 35.0534 15.8223 35.2048C15.6921 35.3562 15.627 35.606 15.627 35.9543V37.3581H15.2217V34.6823H15.5513L15.6172 35.0485H15.6367C15.7197 34.9167 15.8361 34.815 15.9858 34.7434C16.1356 34.6701 16.3024 34.6335 16.4863 34.6335C16.8086 34.6335 17.0511 34.7116 17.2139 34.8679C17.3766 35.0225 17.458 35.2707 17.458 35.6125V37.3581H17.0527ZM20.019 36.6281C20.019 36.8772 19.9263 37.0692 19.7407 37.2043C19.5552 37.3394 19.2948 37.4069 18.9595 37.4069C18.6047 37.4069 18.328 37.3508 18.1294 37.2385V36.8625C18.258 36.9276 18.3955 36.9789 18.542 37.0163C18.6901 37.0537 18.8325 37.0725 18.9692 37.0725C19.1808 37.0725 19.3436 37.0391 19.4575 36.9724C19.5715 36.904 19.6284 36.8007 19.6284 36.6623C19.6284 36.5581 19.5828 36.4694 19.4917 36.3962C19.4022 36.3213 19.2264 36.2334 18.9644 36.1325C18.7153 36.0397 18.5379 35.9592 18.4321 35.8908C18.328 35.8208 18.2498 35.7419 18.1978 35.654C18.1473 35.5661 18.1221 35.4611 18.1221 35.3391C18.1221 35.121 18.2108 34.9493 18.3882 34.8239C18.5656 34.697 18.8089 34.6335 19.1182 34.6335C19.4062 34.6335 19.6878 34.6921 19.9629 34.8093L19.8188 35.1389C19.5503 35.0282 19.307 34.9729 19.0889 34.9729C18.8968 34.9729 18.752 35.003 18.6543 35.0632C18.5566 35.1234 18.5078 35.2064 18.5078 35.3122C18.5078 35.3838 18.5257 35.4449 18.5615 35.4953C18.599 35.5458 18.6584 35.5938 18.7397 35.6394C18.8211 35.6849 18.9774 35.7508 19.2085 35.8371C19.5259 35.9527 19.7399 36.069 19.8506 36.1862C19.9629 36.3034 20.019 36.4507 20.019 36.6281ZM21.0859 37.3581H20.6807V34.6823H21.0859V37.3581ZM20.6465 33.9572C20.6465 33.8645 20.6693 33.7969 20.7148 33.7546C20.7604 33.7106 20.8174 33.6887 20.8857 33.6887C20.9508 33.6887 21.007 33.7106 21.0542 33.7546C21.1014 33.7985 21.125 33.8661 21.125 33.9572C21.125 34.0484 21.1014 34.1167 21.0542 34.1623C21.007 34.2063 20.9508 34.2282 20.8857 34.2282C20.8174 34.2282 20.7604 34.2063 20.7148 34.1623C20.6693 34.1167 20.6465 34.0484 20.6465 33.9572ZM24.2549 36.0178C24.2549 36.454 24.145 36.795 23.9253 37.0407C23.7056 37.2849 23.402 37.4069 23.0146 37.4069C22.7754 37.4069 22.563 37.3508 22.3774 37.2385C22.1919 37.1262 22.0487 36.965 21.9478 36.7551C21.8468 36.5451 21.7964 36.2994 21.7964 36.0178C21.7964 35.5816 21.9054 35.2422 22.1235 34.9997C22.3416 34.7556 22.6444 34.6335 23.0317 34.6335C23.4061 34.6335 23.7031 34.758 23.9229 35.007C24.1442 35.2561 24.2549 35.593 24.2549 36.0178ZM22.2163 36.0178C22.2163 36.3596 22.2847 36.62 22.4214 36.799C22.5581 36.9781 22.7591 37.0676 23.0244 37.0676C23.2897 37.0676 23.4907 36.9789 23.6274 36.8015C23.7658 36.6224 23.835 36.3612 23.835 36.0178C23.835 35.6776 23.7658 35.4196 23.6274 35.2439C23.4907 35.0664 23.2881 34.9777 23.0195 34.9777C22.7542 34.9777 22.554 35.0648 22.4189 35.239C22.2839 35.4131 22.2163 35.6727 22.2163 36.0178ZM26.7988 37.3581V35.6272C26.7988 35.4091 26.7492 35.2463 26.6499 35.1389C26.5506 35.0314 26.3952 34.9777 26.1836 34.9777C25.9036 34.9777 25.6986 35.0534 25.5684 35.2048C25.4382 35.3562 25.373 35.606 25.373 35.9543V37.3581H24.9678V34.6823H25.2974L25.3633 35.0485H25.3828C25.4658 34.9167 25.5822 34.815 25.7319 34.7434C25.8817 34.6701 26.0485 34.6335 26.2324 34.6335C26.5547 34.6335 26.7972 34.7116 26.96 34.8679C27.1227 35.0225 27.2041 35.2707 27.2041 35.6125V37.3581H26.7988ZM29.1694 37.4069C28.7739 37.4069 28.4614 37.2865 28.2319 37.0456C28.0041 36.8047 27.8901 36.4703 27.8901 36.0422C27.8901 35.6109 27.9959 35.2683 28.2075 35.0144C28.4207 34.7605 28.7064 34.6335 29.0645 34.6335C29.3997 34.6335 29.665 34.7442 29.8604 34.9655C30.0557 35.1853 30.1533 35.4758 30.1533 35.8371V36.0935H28.3101C28.3182 36.4076 28.3971 36.646 28.5469 36.8088C28.6982 36.9716 28.9106 37.0529 29.1841 37.0529C29.4722 37.0529 29.757 36.9927 30.0386 36.8723V37.2336C29.8953 37.2954 29.7594 37.3394 29.6309 37.3654C29.5039 37.3931 29.3501 37.4069 29.1694 37.4069ZM29.0596 34.9729C28.8447 34.9729 28.673 35.0428 28.5444 35.1828C28.4175 35.3228 28.3426 35.5165 28.3198 35.7639H29.7188C29.7188 35.5083 29.6618 35.313 29.5479 35.1779C29.4339 35.0412 29.2712 34.9729 29.0596 34.9729Z" fill="black"/>
<path d="M4.6748 43.4069C4.50065 43.4069 4.34115 43.3752 4.19629 43.3117C4.05306 43.2466 3.93262 43.1473 3.83496 43.0139H3.80566C3.8252 43.1701 3.83496 43.3182 3.83496 43.4582V44.5593H3.42969V40.6823H3.75928L3.81543 41.0485H3.83496C3.93913 40.902 4.06038 40.7963 4.19873 40.7311C4.33708 40.666 4.49577 40.6335 4.6748 40.6335C5.02962 40.6335 5.30306 40.7547 5.49512 40.9973C5.6888 41.2398 5.78564 41.5799 5.78564 42.0178C5.78564 42.4572 5.68717 42.799 5.49023 43.0432C5.29492 43.2857 5.02311 43.4069 4.6748 43.4069ZM4.61621 40.9777C4.34277 40.9777 4.14502 41.0534 4.02295 41.2048C3.90088 41.3561 3.83822 41.597 3.83496 41.9274V42.0178C3.83496 42.3937 3.89762 42.6631 4.02295 42.8259C4.14827 42.987 4.34928 43.0676 4.62598 43.0676C4.8571 43.0676 5.03776 42.974 5.16797 42.7868C5.2998 42.5996 5.36572 42.3417 5.36572 42.0129C5.36572 41.6792 5.2998 41.4237 5.16797 41.2463C5.03776 41.0672 4.85384 40.9777 4.61621 40.9777ZM8.1416 43.3581L8.06104 42.9772H8.0415C7.90804 43.1449 7.77458 43.2588 7.64111 43.319C7.50928 43.3776 7.34408 43.4069 7.14551 43.4069C6.88021 43.4069 6.67188 43.3386 6.52051 43.2019C6.37077 43.0651 6.2959 42.8706 6.2959 42.6184C6.2959 42.078 6.72803 41.7948 7.59229 41.7687L8.04639 41.7541V41.5881C8.04639 41.3781 8.00081 41.2235 7.90967 41.1242C7.82015 41.0233 7.67611 40.9728 7.47754 40.9728C7.25456 40.9728 7.00228 41.0412 6.7207 41.1779L6.59619 40.8679C6.72803 40.7963 6.87207 40.7401 7.02832 40.6994C7.1862 40.6587 7.34408 40.6384 7.50195 40.6384C7.82096 40.6384 8.05697 40.7092 8.20996 40.8508C8.36458 40.9924 8.44189 41.2194 8.44189 41.5319V43.3581H8.1416ZM7.22607 43.0725C7.47835 43.0725 7.67611 43.0033 7.81934 42.8649C7.96419 42.7266 8.03662 42.5329 8.03662 42.2839V42.0422L7.63135 42.0593C7.30908 42.0707 7.07633 42.1211 6.93311 42.2106C6.7915 42.2985 6.7207 42.4361 6.7207 42.6232C6.7207 42.7697 6.76465 42.8812 6.85254 42.9577C6.94206 43.0342 7.06657 43.0725 7.22607 43.0725ZM11.4692 40.6823V40.9387L10.9736 40.9973C11.0192 41.0542 11.0599 41.1291 11.0957 41.2219C11.1315 41.313 11.1494 41.4164 11.1494 41.5319C11.1494 41.794 11.0599 42.0031 10.8809 42.1594C10.7018 42.3156 10.4561 42.3937 10.1436 42.3937C10.0638 42.3937 9.98893 42.3872 9.91895 42.3742C9.74642 42.4654 9.66016 42.5801 9.66016 42.7185C9.66016 42.7917 9.69027 42.8462 9.75049 42.882C9.81071 42.9162 9.91406 42.9333 10.0605 42.9333H10.5342C10.8239 42.9333 11.0461 42.9943 11.2007 43.1164C11.3569 43.2385 11.4351 43.4159 11.4351 43.6486C11.4351 43.9449 11.3162 44.1703 11.0786 44.3249C10.841 44.4811 10.4943 44.5593 10.0386 44.5593C9.68864 44.5593 9.41846 44.4942 9.22803 44.364C9.03923 44.2338 8.94482 44.0498 8.94482 43.8122C8.94482 43.6494 8.99691 43.5087 9.10107 43.3898C9.20524 43.271 9.35173 43.1905 9.54053 43.1481C9.47217 43.1172 9.41439 43.0692 9.36719 43.0041C9.32161 42.939 9.29883 42.8633 9.29883 42.777C9.29883 42.6794 9.32487 42.5939 9.37695 42.5207C9.42904 42.4475 9.51123 42.3767 9.62354 42.3083C9.48519 42.2513 9.37207 42.1545 9.28418 42.0178C9.19792 41.8811 9.15479 41.7248 9.15479 41.549C9.15479 41.2561 9.24268 41.0306 9.41846 40.8727C9.59424 40.7132 9.84326 40.6335 10.1655 40.6335C10.3055 40.6335 10.4316 40.6498 10.5439 40.6823H11.4692ZM9.33545 43.8073C9.33545 43.9522 9.39648 44.062 9.51855 44.1369C9.64062 44.2118 9.81559 44.2492 10.0435 44.2492C10.3836 44.2492 10.6351 44.1979 10.7979 44.0954C10.9622 43.9945 11.0444 43.857 11.0444 43.6828C11.0444 43.538 10.9997 43.437 10.9102 43.3801C10.8206 43.3247 10.6522 43.2971 10.4048 43.2971H9.91895C9.73503 43.2971 9.5918 43.341 9.48926 43.4289C9.38672 43.5168 9.33545 43.6429 9.33545 43.8073ZM9.55518 41.5393C9.55518 41.7264 9.60807 41.868 9.71387 41.9641C9.81966 42.0601 9.96696 42.1081 10.1558 42.1081C10.5513 42.1081 10.749 41.916 10.749 41.5319C10.749 41.1299 10.5488 40.9289 10.1484 40.9289C9.95801 40.9289 9.81152 40.9802 9.70898 41.0827C9.60645 41.1852 9.55518 41.3374 9.55518 41.5393ZM12.4238 43.3581H12.0186V40.6823H12.4238V43.3581ZM11.9844 39.9572C11.9844 39.8644 12.0072 39.7969 12.0527 39.7546C12.0983 39.7106 12.1553 39.6887 12.2236 39.6887C12.2887 39.6887 12.3449 39.7106 12.3921 39.7546C12.4393 39.7985 12.4629 39.8661 12.4629 39.9572C12.4629 40.0484 12.4393 40.1167 12.3921 40.1623C12.3449 40.2062 12.2887 40.2282 12.2236 40.2282C12.1553 40.2282 12.0983 40.2062 12.0527 40.1623C12.0072 40.1167 11.9844 40.0484 11.9844 39.9572ZM15.1143 43.3581V41.6271C15.1143 41.409 15.0646 41.2463 14.9653 41.1389C14.866 41.0314 14.7106 40.9777 14.499 40.9777C14.2191 40.9777 14.014 41.0534 13.8838 41.2048C13.7536 41.3561 13.6885 41.606 13.6885 41.9543V43.3581H13.2832V40.6823H13.6128L13.6787 41.0485H13.6982C13.7812 40.9167 13.8976 40.815 14.0474 40.7434C14.1971 40.6701 14.3639 40.6335 14.5479 40.6335C14.8701 40.6335 15.1126 40.7116 15.2754 40.8679C15.4382 41.0225 15.5195 41.2707 15.5195 41.6125V43.3581H15.1143ZM18 43.3581L17.9194 42.9772H17.8999C17.7664 43.1449 17.633 43.2588 17.4995 43.319C17.3677 43.3776 17.2025 43.4069 17.0039 43.4069C16.7386 43.4069 16.5303 43.3386 16.3789 43.2019C16.2292 43.0651 16.1543 42.8706 16.1543 42.6184C16.1543 42.078 16.5864 41.7948 17.4507 41.7687L17.9048 41.7541V41.5881C17.9048 41.3781 17.8592 41.2235 17.7681 41.1242C17.6785 41.0233 17.5345 40.9728 17.3359 40.9728C17.113 40.9728 16.8607 41.0412 16.5791 41.1779L16.4546 40.8679C16.5864 40.7963 16.7305 40.7401 16.8867 40.6994C17.0446 40.6587 17.2025 40.6384 17.3604 40.6384C17.6794 40.6384 17.9154 40.7092 18.0684 40.8508C18.223 40.9924 18.3003 41.2194 18.3003 41.5319V43.3581H18ZM17.0845 43.0725C17.3368 43.0725 17.5345 43.0033 17.6777 42.8649C17.8226 42.7266 17.895 42.5329 17.895 42.2839V42.0422L17.4897 42.0593C17.1675 42.0707 16.9347 42.1211 16.7915 42.2106C16.6499 42.2985 16.5791 42.4361 16.5791 42.6232C16.5791 42.7697 16.623 42.8812 16.7109 42.9577C16.8005 43.0342 16.925 43.0725 17.0845 43.0725ZM22.2578 42.9992H22.2358C22.0487 43.271 21.7687 43.4069 21.396 43.4069C21.0461 43.4069 20.7734 43.2873 20.5781 43.048C20.3844 42.8088 20.2876 42.4686 20.2876 42.0275C20.2876 41.5865 20.3853 41.2438 20.5806 40.9997C20.7759 40.7556 21.0477 40.6335 21.396 40.6335C21.759 40.6335 22.0373 40.7653 22.231 41.029H22.2627L22.2456 40.8361L22.2358 40.6481V39.5593H22.6411V43.3581H22.3115L22.2578 42.9992ZM21.4473 43.0676C21.724 43.0676 21.9242 42.9927 22.0479 42.843C22.1732 42.6916 22.2358 42.4483 22.2358 42.113V42.0275C22.2358 41.6483 22.1724 41.3781 22.0454 41.217C21.9201 41.0542 21.7191 40.9728 21.4424 40.9728C21.2048 40.9728 21.0225 41.0656 20.8955 41.2512C20.7702 41.4351 20.7075 41.6955 20.7075 42.0324C20.7075 42.3742 20.7702 42.6322 20.8955 42.8063C21.0208 42.9805 21.2048 43.0676 21.4473 43.0676ZM23.9082 43.3581H23.5029V40.6823H23.9082V43.3581ZM23.4688 39.9572C23.4688 39.8644 23.4915 39.7969 23.5371 39.7546C23.5827 39.7106 23.6396 39.6887 23.708 39.6887C23.7731 39.6887 23.8293 39.7106 23.8765 39.7546C23.9237 39.7985 23.9473 39.8661 23.9473 39.9572C23.9473 40.0484 23.9237 40.1167 23.8765 40.1623C23.8293 40.2062 23.7731 40.2282 23.708 40.2282C23.6396 40.2282 23.5827 40.2062 23.5371 40.1623C23.4915 40.1167 23.4688 40.0484 23.4688 39.9572Z" fill="black"/>
<path d="M5.25098 48.9992H5.229C5.04183 49.271 4.76188 49.4069 4.38916 49.4069C4.03923 49.4069 3.7666 49.2873 3.57129 49.048C3.3776 48.8088 3.28076 48.4686 3.28076 48.0275C3.28076 47.5865 3.37842 47.2438 3.57373 46.9997C3.76904 46.7556 4.04085 46.6335 4.38916 46.6335C4.75212 46.6335 5.03044 46.7653 5.22412 47.029H5.25586L5.23877 46.8361L5.229 46.6481V45.5593H5.63428V49.3581H5.30469L5.25098 48.9992ZM4.44043 49.0676C4.71712 49.0676 4.91732 48.9927 5.04102 48.843C5.16634 48.6916 5.229 48.4483 5.229 48.113V48.0275C5.229 47.6483 5.16553 47.3781 5.03857 47.217C4.91325 47.0542 4.71224 46.9728 4.43555 46.9728C4.19792 46.9728 4.01562 47.0656 3.88867 47.2512C3.76335 47.4351 3.70068 47.6955 3.70068 48.0324C3.70068 48.3742 3.76335 48.6322 3.88867 48.8063C4.014 48.9805 4.19792 49.0676 4.44043 49.0676ZM6.90137 49.3581H6.49609V46.6823H6.90137V49.3581ZM6.46191 45.9572C6.46191 45.8644 6.4847 45.7969 6.53027 45.7546C6.57585 45.7106 6.63281 45.6887 6.70117 45.6887C6.76628 45.6887 6.82243 45.7106 6.86963 45.7546C6.91683 45.7985 6.94043 45.8661 6.94043 45.9572C6.94043 46.0484 6.91683 46.1167 6.86963 46.1623C6.82243 46.2062 6.76628 46.2282 6.70117 46.2282C6.63281 46.2282 6.57585 46.2062 6.53027 46.1623C6.4847 46.1167 6.46191 46.0484 6.46191 45.9572ZM9.48682 48.6281C9.48682 48.8771 9.39404 49.0692 9.2085 49.2043C9.02295 49.3394 8.76253 49.4069 8.42725 49.4069C8.07243 49.4069 7.79574 49.3508 7.59717 49.2385V48.8625C7.72575 48.9276 7.86328 48.9789 8.00977 49.0163C8.15788 49.0537 8.30029 49.0725 8.43701 49.0725C8.6486 49.0725 8.81136 49.0391 8.92529 48.9724C9.03923 48.904 9.09619 48.8006 9.09619 48.6623C9.09619 48.5581 9.05062 48.4694 8.95947 48.3962C8.86995 48.3213 8.69417 48.2334 8.43213 48.1325C8.18311 48.0397 8.0057 47.9592 7.8999 47.8908C7.79574 47.8208 7.71761 47.7419 7.66553 47.654C7.61507 47.5661 7.58984 47.4611 7.58984 47.3391C7.58984 47.121 7.67855 46.9492 7.85596 46.8239C8.03337 46.697 8.27669 46.6335 8.58594 46.6335C8.87402 46.6335 9.1556 46.6921 9.43066 46.8093L9.28662 47.1389C9.01807 47.0282 8.77474 46.9728 8.55664 46.9728C8.36458 46.9728 8.21973 47.003 8.12207 47.0632C8.02441 47.1234 7.97559 47.2064 7.97559 47.3122C7.97559 47.3838 7.99349 47.4449 8.0293 47.4953C8.06673 47.5458 8.12614 47.5938 8.20752 47.6394C8.2889 47.6849 8.44515 47.7508 8.67627 47.8371C8.99365 47.9527 9.20768 48.069 9.31836 48.1862C9.43066 48.3034 9.48682 48.4507 9.48682 48.6281ZM11.2178 49.4069C10.8304 49.4069 10.5301 49.2881 10.3169 49.0505C10.1053 48.8112 9.99951 48.4735 9.99951 48.0373C9.99951 47.5897 10.1069 47.2438 10.3218 46.9997C10.5382 46.7556 10.8459 46.6335 11.2446 46.6335C11.3732 46.6335 11.5018 46.6473 11.6304 46.675C11.759 46.7027 11.8599 46.7352 11.9331 46.7727L11.8086 47.1169C11.7191 47.0811 11.6214 47.0518 11.5156 47.029C11.4098 47.0046 11.3162 46.9924 11.2349 46.9924C10.6912 46.9924 10.4194 47.3391 10.4194 48.0324C10.4194 48.3612 10.4854 48.6135 10.6172 48.7893C10.7507 48.965 10.9476 49.0529 11.208 49.0529C11.431 49.0529 11.6597 49.0049 11.894 48.9089V49.2678C11.715 49.3605 11.4896 49.4069 11.2178 49.4069ZM12.9121 46.6823V48.4182C12.9121 48.6363 12.9618 48.799 13.061 48.9064C13.1603 49.0139 13.3158 49.0676 13.5273 49.0676C13.8073 49.0676 14.0116 48.9911 14.1401 48.8381C14.2703 48.6851 14.3354 48.4352 14.3354 48.0886V46.6823H14.7407V49.3581H14.4062L14.3477 48.9992H14.3257C14.2427 49.1311 14.1271 49.232 13.979 49.3019C13.8325 49.3719 13.6649 49.4069 13.4761 49.4069C13.1506 49.4069 12.9064 49.3296 12.7437 49.175C12.5825 49.0204 12.502 48.773 12.502 48.4328V46.6823H12.9121ZM17.3286 48.6281C17.3286 48.8771 17.2358 49.0692 17.0503 49.2043C16.8647 49.3394 16.6043 49.4069 16.269 49.4069C15.9142 49.4069 15.6375 49.3508 15.439 49.2385V48.8625C15.5675 48.9276 15.7051 48.9789 15.8516 49.0163C15.9997 49.0537 16.1421 49.0725 16.2788 49.0725C16.4904 49.0725 16.6532 49.0391 16.7671 48.9724C16.881 48.904 16.938 48.8006 16.938 48.6623C16.938 48.5581 16.8924 48.4694 16.8013 48.3962C16.7118 48.3213 16.536 48.2334 16.2739 48.1325C16.0249 48.0397 15.8475 47.9592 15.7417 47.8908C15.6375 47.8208 15.5594 47.7419 15.5073 47.654C15.4569 47.5661 15.4316 47.4611 15.4316 47.3391C15.4316 47.121 15.5203 46.9492 15.6978 46.8239C15.8752 46.697 16.1185 46.6335 16.4277 46.6335C16.7158 46.6335 16.9974 46.6921 17.2725 46.8093L17.1284 47.1389C16.8599 47.0282 16.6165 46.9728 16.3984 46.9728C16.2064 46.9728 16.0615 47.003 15.9639 47.0632C15.8662 47.1234 15.8174 47.2064 15.8174 47.3122C15.8174 47.3838 15.8353 47.4449 15.8711 47.4953C15.9085 47.5458 15.9679 47.5938 16.0493 47.6394C16.1307 47.6849 16.2869 47.7508 16.5181 47.8371C16.8354 47.9527 17.0495 48.069 17.1602 48.1862C17.2725 48.3034 17.3286 48.4507 17.3286 48.6281ZM19.7163 48.6281C19.7163 48.8771 19.6235 49.0692 19.438 49.2043C19.2524 49.3394 18.992 49.4069 18.6567 49.4069C18.3019 49.4069 18.0252 49.3508 17.8267 49.2385V48.8625C17.9552 48.9276 18.0928 48.9789 18.2393 49.0163C18.3874 49.0537 18.5298 49.0725 18.6665 49.0725C18.8781 49.0725 19.0409 49.0391 19.1548 48.9724C19.2687 48.904 19.3257 48.8006 19.3257 48.6623C19.3257 48.5581 19.2801 48.4694 19.189 48.3962C19.0994 48.3213 18.9237 48.2334 18.6616 48.1325C18.4126 48.0397 18.2352 47.9592 18.1294 47.8908C18.0252 47.8208 17.9471 47.7419 17.895 47.654C17.8446 47.5661 17.8193 47.4611 17.8193 47.3391C17.8193 47.121 17.908 46.9492 18.0854 46.8239C18.2629 46.697 18.5062 46.6335 18.8154 46.6335C19.1035 46.6335 19.3851 46.6921 19.6602 46.8093L19.5161 47.1389C19.2476 47.0282 19.0042 46.9728 18.7861 46.9728C18.5941 46.9728 18.4492 47.003 18.3516 47.0632C18.2539 47.1234 18.2051 47.2064 18.2051 47.3122C18.2051 47.3838 18.223 47.4449 18.2588 47.4953C18.2962 47.5458 18.3556 47.5938 18.437 47.6394C18.5184 47.6849 18.6746 47.7508 18.9058 47.8371C19.2231 47.9527 19.4372 48.069 19.5479 48.1862C19.6602 48.3034 19.7163 48.4507 19.7163 48.6281ZM20.7832 49.3581H20.3779V46.6823H20.7832V49.3581ZM20.3438 45.9572C20.3438 45.8644 20.3665 45.7969 20.4121 45.7546C20.4577 45.7106 20.5146 45.6887 20.583 45.6887C20.6481 45.6887 20.7043 45.7106 20.7515 45.7546C20.7987 45.7985 20.8223 45.8661 20.8223 45.9572C20.8223 46.0484 20.7987 46.1167 20.7515 46.1623C20.7043 46.2062 20.6481 46.2282 20.583 46.2282C20.5146 46.2282 20.4577 46.2062 20.4121 46.1623C20.3665 46.1167 20.3438 46.0484 20.3438 45.9572ZM23.9521 48.0178C23.9521 48.454 23.8423 48.7949 23.6226 49.0407C23.4028 49.2849 23.0993 49.4069 22.7119 49.4069C22.4727 49.4069 22.2603 49.3508 22.0747 49.2385C21.8892 49.1262 21.7459 48.965 21.645 48.7551C21.5441 48.5451 21.4937 48.2993 21.4937 48.0178C21.4937 47.5816 21.6027 47.2422 21.8208 46.9997C22.0389 46.7556 22.3416 46.6335 22.729 46.6335C23.1034 46.6335 23.4004 46.758 23.6201 47.007C23.8415 47.2561 23.9521 47.593 23.9521 48.0178ZM21.9136 48.0178C21.9136 48.3596 21.9819 48.62 22.1187 48.799C22.2554 48.9781 22.4564 49.0676 22.7217 49.0676C22.987 49.0676 23.188 48.9789 23.3247 48.8015C23.4631 48.6224 23.5322 48.3612 23.5322 48.0178C23.5322 47.6776 23.4631 47.4196 23.3247 47.2438C23.188 47.0664 22.9854 46.9777 22.7168 46.9777C22.4515 46.9777 22.2513 47.0648 22.1162 47.239C21.9811 47.4131 21.9136 47.6727 21.9136 48.0178ZM26.4961 49.3581V47.6271C26.4961 47.409 26.4465 47.2463 26.3472 47.1389C26.2479 47.0314 26.0924 46.9777 25.8809 46.9777C25.6009 46.9777 25.3958 47.0534 25.2656 47.2048C25.1354 47.3561 25.0703 47.606 25.0703 47.9543V49.3581H24.665V46.6823H24.9946L25.0605 47.0485H25.0801C25.1631 46.9167 25.2795 46.815 25.4292 46.7434C25.5789 46.6701 25.7458 46.6335 25.9297 46.6335C26.252 46.6335 26.4945 46.7116 26.6572 46.8679C26.82 47.0225 26.9014 47.2707 26.9014 47.6125V49.3581H26.4961ZM28.8667 49.4069C28.4712 49.4069 28.1587 49.2865 27.9292 49.0456C27.7013 48.8047 27.5874 48.4702 27.5874 48.0422C27.5874 47.6109 27.6932 47.2683 27.9048 47.0144C28.118 46.7604 28.4036 46.6335 28.7617 46.6335C29.097 46.6335 29.3623 46.7442 29.5576 46.9655C29.7529 47.1852 29.8506 47.4758 29.8506 47.8371V48.0935H28.0073C28.0155 48.4076 28.0944 48.646 28.2441 48.8088C28.3955 48.9715 28.6079 49.0529 28.8813 49.0529C29.1694 49.0529 29.4543 48.9927 29.7358 48.8723V49.2336C29.5926 49.2954 29.4567 49.3394 29.3281 49.3654C29.2012 49.3931 29.0474 49.4069 28.8667 49.4069ZM28.7568 46.9728C28.542 46.9728 28.3703 47.0428 28.2417 47.1828C28.1147 47.3228 28.0399 47.5165 28.0171 47.7639H29.416C29.416 47.5083 29.359 47.313 29.2451 47.1779C29.1312 47.0412 28.9684 46.9728 28.7568 46.9728Z" fill="black"/>
<path d="M31.9701 35.5625L63.9701 35.5625" stroke="black" stroke-width="0.1" stroke-miterlimit="10"/>
<path d="M5.38794 22.2036H5.36597C5.17879 22.4754 4.89884 22.6113 4.52612 22.6113C4.17619 22.6113 3.90356 22.4917 3.70825 22.2524C3.51457 22.0132 3.41772 21.673 3.41772 21.2319C3.41772 20.7909 3.51538 20.4482 3.71069 20.2041C3.90601 19.96 4.17782 19.8379 4.52612 19.8379C4.88908 19.8379 5.1674 19.9697 5.36108 20.2334H5.39282L5.37573 20.0405L5.36597 19.8525V18.7637H5.77124V22.5625H5.44165L5.38794 22.2036ZM4.57739 22.272C4.85409 22.272 5.05428 22.1971 5.17798 22.0474C5.3033 21.896 5.36597 21.6527 5.36597 21.3174V21.2319C5.36597 20.8527 5.30249 20.5825 5.17554 20.4214C5.05021 20.2586 4.8492 20.1773 4.57251 20.1773C4.33488 20.1773 4.15259 20.27 4.02563 20.4556C3.90031 20.6395 3.83765 20.8999 3.83765 21.2368C3.83765 21.5786 3.90031 21.8366 4.02563 22.0107C4.15096 22.1849 4.33488 22.272 4.57739 22.272ZM7.03833 22.5625H6.63306V19.8867H7.03833V22.5625ZM6.59888 19.1616C6.59888 19.0689 6.62166 19.0013 6.66724 18.959C6.71281 18.915 6.76978 18.8931 6.83813 18.8931C6.90324 18.8931 6.95939 18.915 7.00659 18.959C7.05379 19.0029 7.07739 19.0705 7.07739 19.1616C7.07739 19.2528 7.05379 19.3211 7.00659 19.3667C6.95939 19.4107 6.90324 19.4326 6.83813 19.4326C6.76978 19.4326 6.71281 19.4107 6.66724 19.3667C6.62166 19.3211 6.59888 19.2528 6.59888 19.1616ZM11.3083 22.5625V20.8218C11.3083 20.6086 11.2628 20.4491 11.1716 20.3433C11.0805 20.2358 10.9389 20.1821 10.7468 20.1821C10.4945 20.1821 10.3082 20.2546 10.1877 20.3994C10.0673 20.5443 10.0071 20.7673 10.0071 21.0684V22.5625H9.60181V20.8218C9.60181 20.6086 9.55623 20.4491 9.46509 20.3433C9.37394 20.2358 9.23153 20.1821 9.03784 20.1821C8.78394 20.1821 8.59757 20.2586 8.47876 20.4116C8.36157 20.563 8.30298 20.812 8.30298 21.1587V22.5625H7.89771V19.8867H8.22729L8.29321 20.2529H8.31274C8.38924 20.1227 8.49666 20.021 8.63501 19.9478C8.77498 19.8745 8.93123 19.8379 9.10376 19.8379C9.52205 19.8379 9.79549 19.9893 9.92407 20.292H9.9436C10.0234 20.152 10.1389 20.0413 10.2903 19.96C10.4417 19.8786 10.6142 19.8379 10.8079 19.8379C11.1106 19.8379 11.3368 19.916 11.4866 20.0723C11.6379 20.2269 11.7136 20.4751 11.7136 20.8169V22.5625H11.3083ZM13.6814 22.6113C13.2859 22.6113 12.9734 22.4909 12.7439 22.25C12.516 22.0091 12.4021 21.6746 12.4021 21.2466C12.4021 20.8153 12.5079 20.4727 12.7195 20.2188C12.9327 19.9649 13.2183 19.8379 13.5764 19.8379C13.9117 19.8379 14.177 19.9486 14.3723 20.1699C14.5676 20.3897 14.6653 20.6802 14.6653 21.0415V21.2979H12.822C12.8302 21.612 12.9091 21.8504 13.0588 22.0132C13.2102 22.176 13.4226 22.2573 13.696 22.2573C13.9841 22.2573 14.269 22.1971 14.5505 22.0767V22.438C14.4073 22.4998 14.2714 22.5438 14.1428 22.5698C14.0159 22.5975 13.8621 22.6113 13.6814 22.6113ZM13.5715 20.1773C13.3567 20.1773 13.185 20.2472 13.0564 20.3872C12.9294 20.5272 12.8546 20.7209 12.8318 20.9683H14.2307C14.2307 20.7127 14.1737 20.5174 14.0598 20.3823C13.9459 20.2456 13.7831 20.1773 13.5715 20.1773ZM17.1897 22.5625V20.8316C17.1897 20.6135 17.1401 20.4507 17.0408 20.3433C16.9415 20.2358 16.7861 20.1821 16.5745 20.1821C16.2945 20.1821 16.0894 20.2578 15.9592 20.4092C15.829 20.5606 15.7639 20.8104 15.7639 21.1587V22.5625H15.3586V19.8867H15.6882L15.7542 20.2529H15.7737C15.8567 20.1211 15.9731 20.0194 16.1228 19.9478C16.2725 19.8745 16.4394 19.8379 16.6233 19.8379C16.9456 19.8379 17.1881 19.916 17.3508 20.0723C17.5136 20.2269 17.595 20.4751 17.595 20.8169V22.5625H17.1897ZM20.156 21.8325C20.156 22.0816 20.0632 22.2736 19.8777 22.4087C19.6921 22.5438 19.4317 22.6113 19.0964 22.6113C18.7416 22.6113 18.4649 22.5552 18.2664 22.4429V22.0669C18.3949 22.132 18.5325 22.1833 18.679 22.2207C18.8271 22.2581 18.9695 22.2769 19.1062 22.2769C19.3178 22.2769 19.4806 22.2435 19.5945 22.1768C19.7084 22.1084 19.7654 22.0051 19.7654 21.8667C19.7654 21.7625 19.7198 21.6738 19.6287 21.6006C19.5391 21.5257 19.3634 21.4378 19.1013 21.3369C18.8523 21.2441 18.6749 21.1636 18.5691 21.0952C18.4649 21.0252 18.3868 20.9463 18.3347 20.8584C18.2843 20.7705 18.259 20.6655 18.259 20.5435C18.259 20.3254 18.3477 20.1537 18.5251 20.0283C18.7026 19.9014 18.9459 19.8379 19.2551 19.8379C19.5432 19.8379 19.8248 19.8965 20.0999 20.0137L19.9558 20.3433C19.6873 20.2326 19.4439 20.1773 19.2258 20.1773C19.0338 20.1773 18.8889 20.2074 18.7913 20.2676C18.6936 20.3278 18.6448 20.4108 18.6448 20.5166C18.6448 20.5882 18.6627 20.6493 18.6985 20.6997C18.7359 20.7502 18.7953 20.7982 18.8767 20.8438C18.9581 20.8893 19.1143 20.9552 19.3455 21.0415C19.6628 21.1571 19.8769 21.2734 19.9875 21.3906C20.0999 21.5078 20.156 21.6551 20.156 21.8325ZM21.2229 22.5625H20.8176V19.8867H21.2229V22.5625ZM20.7834 19.1616C20.7834 19.0689 20.8062 19.0013 20.8518 18.959C20.8974 18.915 20.9543 18.8931 21.0227 18.8931C21.0878 18.8931 21.144 18.915 21.1912 18.959C21.2384 19.0029 21.262 19.0705 21.262 19.1616C21.262 19.2528 21.2384 19.3211 21.1912 19.3667C21.144 19.4107 21.0878 19.4326 21.0227 19.4326C20.9543 19.4326 20.8974 19.4107 20.8518 19.3667C20.8062 19.3211 20.7834 19.2528 20.7834 19.1616ZM24.3918 21.2222C24.3918 21.6584 24.282 21.9994 24.0623 22.2451C23.8425 22.4893 23.539 22.6113 23.1516 22.6113C22.9124 22.6113 22.7 22.5552 22.5144 22.4429C22.3289 22.3306 22.1856 22.1694 22.0847 21.9595C21.9838 21.7495 21.9333 21.5038 21.9333 21.2222C21.9333 20.786 22.0424 20.4466 22.2605 20.2041C22.4786 19.96 22.7813 19.8379 23.1687 19.8379C23.5431 19.8379 23.8401 19.9624 24.0598 20.2114C24.2812 20.4605 24.3918 20.7974 24.3918 21.2222ZM22.3533 21.2222C22.3533 21.564 22.4216 21.8244 22.5583 22.0034C22.6951 22.1825 22.8961 22.272 23.1614 22.272C23.4267 22.272 23.6277 22.1833 23.7644 22.0059C23.9028 21.8268 23.9719 21.5656 23.9719 21.2222C23.9719 20.882 23.9028 20.624 23.7644 20.4482C23.6277 20.2708 23.425 20.1821 23.1565 20.1821C22.8912 20.1821 22.691 20.2692 22.5559 20.4434C22.4208 20.6175 22.3533 20.8771 22.3533 21.2222ZM26.9358 22.5625V20.8316C26.9358 20.6135 26.8861 20.4507 26.7869 20.3433C26.6876 20.2358 26.5321 20.1821 26.3206 20.1821C26.0406 20.1821 25.8355 20.2578 25.7053 20.4092C25.5751 20.5606 25.51 20.8104 25.51 21.1587V22.5625H25.1047V19.8867H25.4343L25.5002 20.2529H25.5198C25.6028 20.1211 25.7192 20.0194 25.8689 19.9478C26.0186 19.8745 26.1855 19.8379 26.3694 19.8379C26.6917 19.8379 26.9342 19.916 27.0969 20.0723C27.2597 20.2269 27.3411 20.4751 27.3411 20.8169V22.5625H26.9358ZM29.3064 22.6113C28.9109 22.6113 28.5984 22.4909 28.3689 22.25C28.141 22.0091 28.0271 21.6746 28.0271 21.2466C28.0271 20.8153 28.1329 20.4727 28.3445 20.2188C28.5577 19.9649 28.8433 19.8379 29.2014 19.8379C29.5367 19.8379 29.802 19.9486 29.9973 20.1699C30.1926 20.3897 30.2903 20.6802 30.2903 21.0415V21.2979H28.447C28.4552 21.612 28.5341 21.8504 28.6838 22.0132C28.8352 22.176 29.0476 22.2573 29.321 22.2573C29.6091 22.2573 29.894 22.1971 30.1755 22.0767V22.438C30.0323 22.4998 29.8964 22.5438 29.7678 22.5698C29.6409 22.5975 29.4871 22.6113 29.3064 22.6113ZM29.1965 20.1773C28.9817 20.1773 28.81 20.2472 28.6814 20.3872C28.5544 20.5272 28.4796 20.7209 28.4568 20.9683H29.8557C29.8557 20.7127 29.7987 20.5174 29.6848 20.3823C29.5709 20.2456 29.4081 20.1773 29.1965 20.1773Z" fill="black"/>
<path d="M3.97192 28.1728H3.56665V25.497H3.97192V28.1728ZM3.53247 24.7719C3.53247 24.6791 3.55526 24.6116 3.60083 24.5692C3.6464 24.5253 3.70337 24.5033 3.77173 24.5033C3.83683 24.5033 3.89299 24.5253 3.94019 24.5692C3.98739 24.6132 4.01099 24.6807 4.01099 24.7719C4.01099 24.863 3.98739 24.9314 3.94019 24.977C3.89299 25.0209 3.83683 25.0429 3.77173 25.0429C3.70337 25.0429 3.6464 25.0209 3.60083 24.977C3.55526 24.9314 3.53247 24.863 3.53247 24.7719ZM6.66235 28.1728V26.4418C6.66235 26.2237 6.61271 26.0609 6.51343 25.9535C6.41414 25.8461 6.25871 25.7924 6.04712 25.7924C5.76717 25.7924 5.56209 25.8681 5.43188 26.0194C5.30168 26.1708 5.23657 26.4206 5.23657 26.7689V28.1728H4.8313V25.497H5.16089L5.22681 25.8632H5.24634C5.32935 25.7313 5.44572 25.6296 5.59546 25.558C5.7452 25.4848 5.91203 25.4481 6.09595 25.4481C6.41821 25.4481 6.66073 25.5263 6.82349 25.6825C6.98625 25.8371 7.06763 26.0854 7.06763 26.4271V28.1728H6.66235ZM8.97192 28.2216C8.58455 28.2216 8.28426 28.1028 8.07104 27.8651C7.85946 27.6259 7.75366 27.2881 7.75366 26.852C7.75366 26.4044 7.86108 26.0585 8.07593 25.8144C8.2924 25.5702 8.60002 25.4481 8.99878 25.4481C9.12736 25.4481 9.25594 25.462 9.38452 25.4896C9.5131 25.5173 9.61401 25.5499 9.68726 25.5873L9.56274 25.9315C9.47323 25.8957 9.37557 25.8664 9.26978 25.8437C9.16398 25.8192 9.07039 25.807 8.98901 25.807C8.44539 25.807 8.17358 26.1537 8.17358 26.8471C8.17358 27.1758 8.2395 27.4281 8.37134 27.6039C8.5048 27.7797 8.70174 27.8676 8.96216 27.8676C9.18514 27.8676 9.41382 27.8196 9.64819 27.7235V28.0824C9.46916 28.1752 9.24373 28.2216 8.97192 28.2216ZM10.6907 28.1728H10.2854V25.497H10.6907V28.1728ZM10.2512 24.7719C10.2512 24.6791 10.274 24.6116 10.3196 24.5692C10.3652 24.5253 10.4221 24.5033 10.4905 24.5033C10.5556 24.5033 10.6117 24.5253 10.6589 24.5692C10.7061 24.6132 10.7297 24.6807 10.7297 24.7719C10.7297 24.863 10.7061 24.9314 10.6589 24.977C10.6117 25.0209 10.5556 25.0429 10.4905 25.0429C10.4221 25.0429 10.3652 25.0209 10.3196 24.977C10.274 24.9314 10.2512 24.863 10.2512 24.7719ZM12.7952 28.2216C12.621 28.2216 12.4615 28.1898 12.3167 28.1264C12.1734 28.0613 12.053 27.962 11.9553 27.8285H11.926C11.9456 27.9848 11.9553 28.1329 11.9553 28.2729V29.3739H11.55V25.497H11.8796L11.9358 25.8632H11.9553C12.0595 25.7167 12.1807 25.6109 12.3191 25.5458C12.4574 25.4807 12.6161 25.4481 12.7952 25.4481C13.15 25.4481 13.4234 25.5694 13.6155 25.8119C13.8092 26.0544 13.906 26.3946 13.906 26.8324C13.906 27.2719 13.8075 27.6137 13.6106 27.8578C13.4153 28.1003 13.1435 28.2216 12.7952 28.2216ZM12.7366 25.7924C12.4631 25.7924 12.2654 25.8681 12.1433 26.0194C12.0212 26.1708 11.9586 26.4117 11.9553 26.7421V26.8324C11.9553 27.2084 12.018 27.4778 12.1433 27.6405C12.2686 27.8017 12.4696 27.8822 12.7463 27.8822C12.9775 27.8822 13.1581 27.7886 13.2883 27.6015C13.4202 27.4143 13.4861 27.1563 13.4861 26.8275C13.4861 26.4939 13.4202 26.2383 13.2883 26.0609C13.1581 25.8819 12.9742 25.7924 12.7366 25.7924ZM15.0217 28.1728H14.6165V25.497H15.0217V28.1728ZM14.5823 24.7719C14.5823 24.6791 14.6051 24.6116 14.6506 24.5692C14.6962 24.5253 14.7532 24.5033 14.8215 24.5033C14.8866 24.5033 14.9428 24.5253 14.99 24.5692C15.0372 24.6132 15.0608 24.6807 15.0608 24.7719C15.0608 24.863 15.0372 24.9314 14.99 24.977C14.9428 25.0209 14.8866 25.0429 14.8215 25.0429C14.7532 25.0429 14.6962 25.0209 14.6506 24.977C14.6051 24.9314 14.5823 24.863 14.5823 24.7719ZM16.7454 27.8871C16.817 27.8871 16.8861 27.8822 16.9529 27.8725C17.0196 27.8611 17.0725 27.8497 17.1116 27.8383V28.1483C17.0676 28.1695 17.0025 28.1866 16.9163 28.1996C16.8316 28.2143 16.7551 28.2216 16.6868 28.2216C16.1692 28.2216 15.9104 27.949 15.9104 27.4037V25.8119H15.5271V25.6166L15.9104 25.4481L16.0813 24.8769H16.3157V25.497H17.092V25.8119H16.3157V27.3866C16.3157 27.5478 16.3539 27.6715 16.4304 27.7577C16.5069 27.844 16.6119 27.8871 16.7454 27.8871Z" fill="black"/>
<path d="M32 21H64" stroke="black" stroke-width="0.1" stroke-miterlimit="10"/>
<circle cx="87.1429" cy="24.4286" r="1.17857" stroke="#7F7F7F" stroke-width="0.5"/>
<rect x="85.25" y="24.6786" width="3.78571" height="3.07143" fill="white" stroke="#7F7F7F" stroke-width="0.5"/>
</svg>
